<svg width="60" height="60" viewBox="0 0 60 60" fill="none" xmlns="http://www.w3.org/2000/svg">
<path d="M25.5 47.3999H9.00001V21.5999H48V24.8999C48 25.1386 48.0948 25.3675 48.2636 25.5363C48.4324 25.7051 48.6613 25.7999 48.9 25.7999C49.1387 25.7999 49.3676 25.7051 49.5364 25.5363C49.7052 25.3675 49.8 25.1386 49.8 24.8999V12.2999C49.8 12.0612 49.7052 11.8323 49.5364 11.6635C49.3676 11.4947 49.1387 11.3999 48.9 11.3999H8.10001C7.86132 11.3999 7.6324 11.4947 7.46362 11.6635C7.29483 11.8323 7.20001 12.0612 7.20001 12.2999V48.2999C7.20001 48.5386 7.29483 48.7675 7.46362 48.9363C7.6324 49.1051 7.86132 49.1999 8.10001 49.1999H25.5C25.7387 49.1999 25.9676 49.1051 26.1364 48.9363C26.3052 48.7675 26.4 48.5386 26.4 48.2999C26.4 48.0612 26.3052 47.8323 26.1364 47.6635C25.9676 47.4947 25.7387 47.3999 25.5 47.3999ZM48 13.1999V19.7999H9.00001V13.1999H48Z" fill="black"/>
<path d="M12.3 17.4001H15.3C15.5387 17.4001 15.7676 17.3053 15.9364 17.1365C16.1052 16.9677 16.2 16.7388 16.2 16.5001C16.2 16.2614 16.1052 16.0325 15.9364 15.8637C15.7676 15.6949 15.5387 15.6001 15.3 15.6001H12.3C12.0613 15.6001 11.8324 15.6949 11.6636 15.8637C11.4948 16.0325 11.4 16.2614 11.4 16.5001C11.4 16.7388 11.4948 16.9677 11.6636 17.1365C11.8324 17.3053 12.0613 17.4001 12.3 17.4001Z" fill="black"/>
<path d="M18.9 17.4001H21.9C22.1387 17.4001 22.3676 17.3053 22.5364 17.1365C22.7052 16.9677 22.8 16.7388 22.8 16.5001C22.8 16.2614 22.7052 16.0325 22.5364 15.8637C22.3676 15.6949 22.1387 15.6001 21.9 15.6001H18.9C18.6613 15.6001 18.4324 15.6949 18.2636 15.8637C18.0948 16.0325 18 16.2614 18 16.5001C18 16.7388 18.0948 16.9677 18.2636 17.1365C18.4324 17.3053 18.6613 17.4001 18.9 17.4001Z" fill="black"/>
<path d="M40.2 34.2002C39.0133 34.2002 37.8533 34.5521 36.8666 35.2114C35.8799 35.8707 35.1109 36.8077 34.6567 37.9041C34.2026 39.0005 34.0838 40.2069 34.3153 41.3707C34.5468 42.5346 35.1183 43.6037 35.9574 44.4428C36.7965 45.282 37.8656 45.8534 39.0295 46.0849C40.1934 46.3164 41.3998 46.1976 42.4961 45.7435C43.5925 45.2893 44.5295 44.5203 45.1888 43.5336C45.8481 42.5469 46.2 41.3869 46.2 40.2002C46.2 38.6089 45.5679 37.0828 44.4427 35.9576C43.3174 34.8323 41.7913 34.2002 40.2 34.2002ZM40.2 44.4002C39.3693 44.4002 38.5573 44.1539 37.8666 43.6924C37.1759 43.2309 36.6376 42.5749 36.3197 41.8075C36.0018 41.04 35.9187 40.1955 36.0807 39.3808C36.2428 38.5661 36.6428 37.8177 37.2302 37.2303C37.8175 36.643 38.5659 36.243 39.3806 36.0809C40.1954 35.9188 41.0398 36.002 41.8073 36.3199C42.5747 36.6378 43.2307 37.1761 43.6922 37.8668C44.1537 38.5575 44.4 39.3695 44.4 40.2002C44.4 41.3141 43.9575 42.3824 43.1699 43.17C42.3822 43.9577 41.3139 44.4002 40.2 44.4002Z" fill="black"/>
<path d="M53.832 36.9902L50.4 36.4682C50.2248 35.9302 50.0081 35.4067 49.752 34.9022L51.816 32.1002C51.9518 31.9243 52.0177 31.7045 52.0011 31.4829C51.9844 31.2614 51.8865 31.0538 51.726 30.9002L48.87 28.0442C48.7164 27.8837 48.5088 27.7858 48.2873 27.7692C48.0657 27.7525 47.8459 27.8184 47.67 27.9542L44.88 30.0122C44.3783 29.7691 43.8588 29.5645 43.326 29.4002L42.81 25.9802C42.7811 25.7649 42.6752 25.5674 42.512 25.424C42.3488 25.2806 42.1392 25.2012 41.922 25.2002H37.878C37.6626 25.2007 37.4545 25.2785 37.2915 25.4195C37.1286 25.5604 37.0216 25.7551 36.99 25.9682L36.474 29.4002C35.9319 29.577 35.4043 29.7956 34.896 30.0542L32.106 27.9962C31.9302 27.8604 31.7103 27.7945 31.4888 27.8112C31.2672 27.8278 31.0597 27.9257 30.906 28.0862L28.05 30.9422C27.8895 31.0958 27.7916 31.3034 27.775 31.5249C27.7584 31.7465 27.8243 31.9663 27.96 32.1422L30.024 34.9442C29.7781 35.4358 29.5695 35.9453 29.4 36.4682L25.956 36.9902C25.7451 37.0244 25.5532 37.1325 25.4147 37.2952C25.2762 37.4579 25.2001 37.6645 25.2 37.8782V41.9222C25.2006 42.1376 25.2784 42.3457 25.4193 42.5087C25.5602 42.6716 25.7549 42.7786 25.968 42.8102L29.43 43.3322C29.6045 43.8598 29.8192 44.3733 30.072 44.8682L27.99 47.6882C27.8543 47.8641 27.7884 48.0839 27.805 48.3054C27.8216 48.527 27.9195 48.7346 28.08 48.8882L30.936 51.7442C31.0897 51.9047 31.2972 52.0026 31.5188 52.0192C31.7403 52.0359 31.9602 51.9699 32.136 51.8342L34.968 49.7462C35.4595 49.9942 35.9689 50.2048 36.492 50.3762L37.02 53.8562C37.0558 54.0599 37.1606 54.2451 37.3168 54.3806C37.4731 54.5161 37.6713 54.5937 37.878 54.6002H41.922C42.1374 54.5997 42.3455 54.5219 42.5085 54.3809C42.6714 54.24 42.7784 54.0453 42.81 53.8322L43.338 50.3522C43.8611 50.1807 44.3705 49.9701 44.862 49.7222L47.694 51.8102C47.8699 51.9459 48.0897 52.0119 48.3113 51.9952C48.5328 51.9786 48.7404 51.8807 48.894 51.7202L51.75 48.8642C51.9105 48.7106 52.0084 48.503 52.0251 48.2814C52.0417 48.0599 51.9758 47.8401 51.84 47.6642L49.758 44.8442C50.0097 44.3571 50.2243 43.8516 50.4 43.3322L53.862 42.8102C54.0696 42.7722 54.2573 42.6625 54.3922 42.5001C54.5271 42.3378 54.6006 42.1333 54.6 41.9222V37.8782C54.5995 37.6628 54.5217 37.4547 54.3807 37.2917C54.2398 37.1288 54.0451 37.0218 53.832 36.9902ZM52.8 41.1482L49.542 41.6402C49.3698 41.6666 49.2089 41.7425 49.079 41.8586C48.9491 41.9747 48.8556 42.126 48.81 42.2942C48.601 43.065 48.2924 43.8052 47.892 44.4962C47.8044 44.6477 47.7628 44.8215 47.7724 44.9962C47.782 45.171 47.8423 45.3392 47.946 45.4802L49.908 48.1382L48.144 49.9022L45.474 47.9342C45.333 47.8305 45.1648 47.7701 44.9901 47.7605C44.8153 47.751 44.6415 47.7925 44.49 47.8802C43.8023 48.2757 43.0662 48.5803 42.3 48.7862C42.1318 48.8318 41.9805 48.9252 41.8644 49.0552C41.7483 49.1851 41.6725 49.346 41.646 49.5182L41.148 52.8002H38.652L38.154 49.5182C38.1276 49.346 38.0517 49.1851 37.9356 49.0552C37.8195 48.9252 37.6682 48.8318 37.5 48.7862C36.7339 48.5802 35.9977 48.2757 35.31 47.8802C35.1585 47.7925 34.9847 47.751 34.81 47.7605C34.6352 47.7701 34.467 47.8305 34.326 47.9342L31.656 49.9022L29.892 48.1382L31.86 45.4802C31.9637 45.3392 32.0241 45.171 32.0337 44.9962C32.0433 44.8215 32.0017 44.6477 31.914 44.4962C31.5137 43.8052 31.2051 43.065 30.996 42.2942C30.9504 42.126 30.857 41.9747 30.727 41.8586C30.5971 41.7425 30.4362 41.6666 30.264 41.6402L27 41.1482V38.6522L30.246 38.1602C30.4201 38.1344 30.5828 38.0581 30.7139 37.9408C30.8451 37.8235 30.939 37.6703 30.984 37.5002C31.1908 36.721 31.4994 35.9726 31.902 35.2742C31.9897 35.1227 32.0313 34.9489 32.0217 34.7741C32.0121 34.5994 31.9517 34.4312 31.848 34.2902L29.904 31.6562L31.668 29.8922L34.296 31.8302C34.437 31.9339 34.6052 31.9943 34.78 32.0038C34.9547 32.0134 35.1285 31.9719 35.28 31.8842C35.9816 31.4766 36.7342 31.1639 37.518 30.9542C37.6881 30.9092 37.8413 30.8153 37.9586 30.6841C38.0759 30.5529 38.1522 30.3903 38.178 30.2162L38.652 27.0002H41.148L41.634 30.2222C41.6598 30.3963 41.7361 30.5589 41.8534 30.6901C41.9707 30.8213 42.1239 30.9152 42.294 30.9602C43.0779 31.1699 43.8304 31.4826 44.532 31.8902C44.6833 31.9786 44.8572 32.0206 45.0321 32.011C45.2071 32.0014 45.3753 31.9406 45.516 31.8362L48.144 29.8982L49.908 31.6622L47.964 34.2962C47.8603 34.4372 47.8 34.6054 47.7904 34.7801C47.7808 34.9549 47.8224 35.1287 47.91 35.2802C48.3126 35.9786 48.6213 36.727 48.828 37.5062C48.873 37.6763 48.9669 37.8295 49.0981 37.9468C49.2293 38.0641 49.3919 38.1404 49.566 38.1662L52.812 38.6582L52.8 41.1482Z" fill="black"/>
</svg>
