<svg width="61" height="61" viewBox="0 0 61 61" fill="none" xmlns="http://www.w3.org/2000/svg">
<path d="M60.5762 31.3732C60.3498 30.7012 59.7896 30.4229 59.3262 30.7481L52.7075 35.3917L48.1971 38.213C47.501 37.9535 45.7226 37.2807 44.1252 36.5969L43.3417 36.1754C43.227 36.1141 43.1091 36.0889 42.9937 36.0934C42.4398 35.8349 41.9582 35.5899 41.6339 35.3836C40.0782 34.3945 37.2988 32.0696 36.1785 30.6661C34.9129 29.0861 31.6157 23.222 31.5827 23.1625C31.3026 22.6635 30.8179 22.5184 30.4237 22.8148C29.5168 23.4967 26.5751 25.2956 25.0176 24.6416C24.1955 24.2885 22.6741 23.0832 22.2437 22.3329C21.9568 21.8338 21.7123 20.0349 21.8414 19.4602C22.1776 19.2143 23.4526 19.526 24.077 19.6782C25.1455 19.9395 26.156 20.1863 26.9363 19.8215C28.4558 19.1125 31.5197 15.3319 32.2582 14.4023C32.9911 14.0158 36.607 12.2557 39.1289 13.7042C40.4594 14.4689 41.753 14.7329 42.907 14.7329C45.4026 14.7329 47.2433 13.4943 47.3799 13.3997L56.5716 6.30593C57.027 5.95372 57.1991 5.1358 56.9559 4.47732C56.712 3.81974 56.1456 3.57022 55.6897 3.92243L46.5391 10.9856C46.5073 11.0072 43.2525 13.1637 39.8206 11.1927C36.8316 9.47403 32.9537 11.1828 31.7779 11.7792C30.4736 11.0648 26.8072 9.17046 25.1779 9.52717C23.6572 9.86407 19.2285 10.1658 17.4346 9.68751C16.6773 9.37854 10.925 4.88358 5.89816 0.811985C5.44656 0.447163 4.87707 0.678668 4.62445 1.32994C4.37183 1.98032 4.53213 2.80454 4.98248 3.16936C8.27031 5.83301 16.0299 12.0566 17.0628 12.3349C19.2572 12.9223 23.9728 12.5277 25.4592 12.1989C26.194 12.0377 28.19 12.8313 29.9372 13.6942C28.631 15.2373 27.0716 16.9173 26.3605 17.2488C26.015 17.41 25.1137 17.1893 24.3888 17.0119C22.9062 16.6498 21.3736 16.275 20.4754 17.5911C19.473 19.0747 20.0737 22.7896 20.8022 24.0561C21.5539 25.3667 23.4532 26.7891 24.4893 27.2332C26.5053 28.079 29.2928 26.5405 30.5971 25.6892C31.5839 27.4179 33.8594 31.3417 34.9522 32.7064C36.3157 34.4152 39.3728 36.8969 40.8785 37.8545C41.4648 38.2274 42.456 38.694 43.5151 39.1507L47.9033 41.5117C48.1328 41.6828 48.3069 42.0017 48.421 42.4611C48.6194 43.2601 48.5794 44.3267 48.3231 45.1122C48.0099 46.0634 47.3076 46.5588 46.642 46.4201C46.5104 46.3102 46.3626 46.249 46.2098 46.24L40.2604 41.7828C39.8019 41.4387 39.2368 41.6981 38.9991 42.3602C38.7615 43.0223 38.9399 43.8384 39.399 44.1816L45.3908 48.6694C45.4089 48.682 45.4276 48.6892 45.4457 48.7018C45.4912 49.0441 45.4488 49.2819 45.3814 49.5954C45.3359 49.8062 45.2829 50.053 45.2561 50.3386C44.8631 51.3871 43.9736 51.851 43.2108 51.3772L38.1889 48.2253C38.1664 48.2109 38.1433 48.2055 38.1203 48.1938C38.0903 48.1785 38.0604 48.1623 38.0304 48.1523C37.9999 48.1415 37.9687 48.1361 37.9381 48.1307C37.9082 48.1253 37.8789 48.1181 37.8495 48.1163C37.8177 48.1145 37.7865 48.1181 37.7554 48.1217C37.7267 48.1244 37.698 48.1253 37.6699 48.1325C37.6387 48.1397 37.6088 48.1514 37.5788 48.1632C37.5514 48.174 37.5233 48.183 37.4965 48.1974C37.4678 48.2127 37.441 48.2325 37.4135 48.2514C37.3867 48.2703 37.3599 48.2875 37.3343 48.31C37.3087 48.3316 37.2857 48.3586 37.262 48.3838C37.237 48.41 37.2127 48.4361 37.1896 48.4658C37.1678 48.4946 37.1484 48.5271 37.1285 48.5586C37.1073 48.5928 37.0854 48.6253 37.0667 48.6622C37.0486 48.6973 37.0343 48.7361 37.0181 48.7739C37.005 48.8054 36.99 48.8324 36.9788 48.8658C36.975 48.8766 36.9738 48.8883 36.97 48.8991C36.9669 48.909 36.9619 48.9171 36.9594 48.927C36.9501 48.9577 36.9463 48.9883 36.9389 49.0198C36.9276 49.0657 36.9158 49.1117 36.9083 49.1576C36.9014 49.1991 36.8983 49.2414 36.8946 49.2837C36.8902 49.3288 36.8852 49.3738 36.8846 49.4189C36.8833 49.4621 36.8858 49.5053 36.8877 49.5486C36.8896 49.5918 36.8908 49.635 36.8952 49.6783C36.9002 49.7215 36.9083 49.7639 36.9158 49.8062C36.9233 49.8476 36.9301 49.8882 36.9401 49.9287C36.9507 49.9692 36.9638 50.0089 36.9769 50.0476C36.9894 50.0863 37.0019 50.1251 37.0168 50.1611C37.0324 50.1989 37.0511 50.2341 37.0692 50.2692C37.0867 50.3043 37.1042 50.3386 37.1241 50.371C37.1447 50.4043 37.1684 50.4331 37.1921 50.4638C37.2146 50.4926 37.2358 50.5223 37.2601 50.5485C37.2857 50.5755 37.3137 50.5989 37.3418 50.6223C37.3618 50.6403 37.3799 50.661 37.4011 50.6764L38.7397 51.6339C39.5337 52.1789 39.8743 53.5553 39.4981 54.7038C39.3135 55.2677 38.9885 55.6938 38.5831 55.9028C38.1833 56.1091 37.7535 56.0775 37.3705 55.8145L33.6061 53.2463L34.679 50.6178C35.7119 48.0965 35.1306 44.8266 33.3841 43.3295L33.3828 43.3286C32.6031 42.6638 31.7217 42.4611 30.8921 42.6602C31.0624 40.2524 30.3021 37.822 28.7969 36.5294C28.7957 36.5276 28.7938 36.5267 28.792 36.5249C27.2968 35.2566 25.4842 35.4367 24.1125 36.7555C23.8399 35.5845 23.2904 34.5413 22.4976 33.8612C20.738 32.3695 18.4675 33.21 17.4364 35.7331L14.9277 41.8648L8.78741 35.5214C8.76558 35.4989 8.74125 35.4836 8.71817 35.4646C8.69572 35.4457 8.67576 35.4223 8.65205 35.4061L2.01464 30.7508C1.55057 30.4256 0.989809 30.704 0.764632 31.3759C0.538832 32.047 0.73282 32.8559 1.19752 33.182L7.76382 37.7887L14.0613 44.2951C13.5791 46.5931 14.2235 49.1621 15.7211 50.4377C16.3093 50.9376 16.9549 51.1754 17.5924 51.1754C17.7976 51.1754 18.0009 51.1421 18.2024 51.0934C18.0253 53.522 18.7925 55.9739 20.3126 57.2729C20.9844 57.844 21.7335 58.1358 22.497 58.1358C22.8856 58.1358 23.2779 58.0602 23.6653 57.907C24.1418 57.7188 24.5853 57.417 24.9864 57.027C25.2621 58.1908 25.8135 59.2258 26.6038 59.9023C27.1908 60.4013 27.8357 60.6392 28.4726 60.6392C29.7351 60.6392 30.9676 59.7059 31.6569 58.0287L32.653 55.5866L36.5696 58.2593C37.0393 58.5817 37.5427 58.7448 38.0479 58.7448C38.4396 58.7448 38.8326 58.6475 39.2131 58.4511C40.0901 57.9998 40.7931 57.0801 41.191 55.8613C41.4667 55.0191 41.5609 54.1219 41.5048 53.2562L42.4691 53.8616C42.9126 54.1381 43.376 54.2678 43.832 54.2678C45.1768 54.2678 46.4624 53.1337 47.0331 51.2421C47.0849 51.0718 47.1111 50.8944 47.1111 50.7088C47.1136 50.6593 47.146 50.5115 47.1691 50.4034C47.2377 50.0836 47.33 49.6558 47.3419 49.1018C48.4647 48.8757 49.4926 47.8632 50.0153 46.2733C50.4856 44.8356 50.5499 43.0268 50.1837 41.5522C50.059 41.0514 49.8837 40.6181 49.6766 40.2353L53.4697 37.8626C53.4766 37.8581 53.4822 37.8518 53.489 37.8464C53.4946 37.8427 53.5009 37.8418 53.5065 37.8373L60.1439 33.1811C60.608 32.8523 60.802 32.0443 60.5762 31.3732ZM16.6711 48.1064C15.8041 47.3686 15.5121 45.7535 16.0199 44.5086L19.0476 37.1068C19.3857 36.2808 19.9938 35.8223 20.6182 35.8223C20.9345 35.8223 21.2551 35.9403 21.5464 36.1871C22.4078 36.9266 22.696 38.5391 22.1882 39.7813L19.1618 47.184C18.6528 48.4289 17.5344 48.8414 16.6711 48.1064ZM23.1713 55.2974C22.5132 55.5569 21.8358 55.4299 21.2626 54.9425C20.0631 53.9174 19.6826 51.6186 20.413 49.8197L24.3327 40.2479C24.8242 39.0399 25.6994 38.3625 26.5882 38.3625C27.0174 38.3625 27.449 38.5201 27.842 38.8525C29.034 39.8785 29.4076 42.1693 28.6747 43.9591L24.7575 53.5301C24.4007 54.4066 23.8374 55.0344 23.1713 55.2974ZM30.0457 56.6504C29.5355 57.8926 28.4165 58.3052 27.555 57.572C26.6868 56.8297 26.3949 55.2146 26.9051 53.9706L29.9303 46.5687C30.269 45.7436 30.8759 45.286 31.4997 45.286C31.8172 45.286 32.1384 45.4049 32.4316 45.6544C33.2911 46.3931 33.5781 48.0019 33.0691 49.2441L31.7997 52.3554C31.5365 52.4491 31.3026 52.7014 31.1778 53.0833C31.0793 53.3851 31.0687 53.7111 31.1248 54.0102L30.0457 56.6504Z" fill="#231F20"/>
</svg>
