<svg width="60" height="60" viewBox="0 0 60 60" fill="none" xmlns="http://www.w3.org/2000/svg">
<path d="M52.5 35.4H48V16.5C48 16.2613 47.9052 16.0324 47.7364 15.8636C47.5676 15.6948 47.3387 15.6 47.1 15.6H40.2V6.9C40.2 6.66131 40.1052 6.43239 39.9364 6.2636C39.7676 6.09482 39.5387 6 39.3 6H20.7C20.4613 6 20.2324 6.09482 20.0636 6.2636C19.8948 6.43239 19.8 6.66131 19.8 6.9V15.6H12.9C12.6613 15.6 12.4324 15.6948 12.2636 15.8636C12.0948 16.0324 12 16.2613 12 16.5V35.4H7.50001C7.26131 35.4 7.03239 35.4948 6.86361 35.6636C6.69483 35.8324 6.60001 36.0613 6.60001 36.3V47.7C6.60001 47.9387 6.69483 48.1676 6.86361 48.3364C7.03239 48.5052 7.26131 48.6 7.50001 48.6H18.9C19.1387 48.6 19.3676 48.5052 19.5364 48.3364C19.7052 48.1676 19.8 47.9387 19.8 47.7V36.3C19.8 36.0613 19.7052 35.8324 19.5364 35.6636C19.3676 35.4948 19.1387 35.4 18.9 35.4H13.8V17.4H19.8V25.5C19.8 25.7387 19.8948 25.9676 20.0636 26.1364C20.2324 26.3052 20.4613 26.4 20.7 26.4H29.4V35.4H24.3C24.0613 35.4 23.8324 35.4948 23.6636 35.6636C23.4948 35.8324 23.4 36.0613 23.4 36.3V47.7C23.4 47.9387 23.4948 48.1676 23.6636 48.3364C23.8324 48.5052 24.0613 48.6 24.3 48.6H35.7C35.9387 48.6 36.1676 48.5052 36.3364 48.3364C36.5052 48.1676 36.6 47.9387 36.6 47.7V36.3C36.6 36.0613 36.5052 35.8324 36.3364 35.6636C36.1676 35.4948 35.9387 35.4 35.7 35.4H31.2V26.4H39.3C39.5387 26.4 39.7676 26.3052 39.9364 26.1364C40.1052 25.9676 40.2 25.7387 40.2 25.5V17.4H46.2V35.4H41.1C40.8613 35.4 40.6324 35.4948 40.4636 35.6636C40.2948 35.8324 40.2 36.0613 40.2 36.3V47.7C40.2 47.9387 40.2948 48.1676 40.4636 48.3364C40.6324 48.5052 40.8613 48.6 41.1 48.6H52.5C52.7387 48.6 52.9676 48.5052 53.1364 48.3364C53.3052 48.1676 53.4 47.9387 53.4 47.7V36.3C53.4 36.0613 53.3052 35.8324 53.1364 35.6636C52.9676 35.4948 52.7387 35.4 52.5 35.4ZM18 46.8H8.40001V37.2H18V46.8ZM34.8 46.8H25.2V37.2H34.8V46.8ZM38.4 24.6H21.6V7.8H38.4V24.6ZM51.6 46.8H42V37.2H51.6V46.8Z" fill="black"/>
</svg>
