<svg width="61" height="61" viewBox="0 0 61 61" fill="none" xmlns="http://www.w3.org/2000/svg">
<path d="M54.9347 0.397949H11.8879C9.0029 0.397949 6.65541 2.32726 6.65541 4.69831V10.7862H1.42379C0.729756 10.7862 0.167999 11.2479 0.167999 11.8183C0.167999 12.3887 0.729756 12.8504 1.42379 12.8504H6.65541V19.9876H1.42379C0.729756 19.9876 0.167999 20.4493 0.167999 21.0197C0.167999 21.5901 0.729756 22.0518 1.42379 22.0518H6.65541V29.189H1.42379C0.729756 29.189 0.167999 29.6507 0.167999 30.2211C0.167999 30.7908 0.729756 31.2532 1.42379 31.2532H6.65541V38.3897H1.42379C0.729756 38.3897 0.167999 38.8521 0.167999 39.4218C0.167999 39.9915 0.729756 40.4539 1.42379 40.4539H6.65541V46.9024H1.42379C0.729756 46.9024 0.167999 47.3648 0.167999 47.9345C0.167999 48.5042 0.729756 48.9666 1.42379 48.9666H6.65541V56.0969C6.65541 58.4679 9.0029 60.3973 11.8879 60.3973H45.955C45.9575 60.3973 45.96 60.398 45.9633 60.398C45.9667 60.398 45.9684 60.3973 45.9717 60.3973H54.9355C57.8205 60.3973 60.168 58.4679 60.168 56.0969V4.69831C60.1672 2.32726 57.8197 0.397949 54.9347 0.397949ZM9.16699 56.0969V48.9666H14.201C14.8951 48.9666 15.4568 48.5042 15.4568 47.9345C15.4568 47.3648 14.8951 46.9024 14.201 46.9024H9.16699V40.4539H14.201C14.8951 40.4539 15.4568 39.9915 15.4568 39.4218C15.4568 38.8521 14.8951 38.3897 14.201 38.3897H9.16699V31.2525H14.201C14.8951 31.2525 15.4568 30.7901 15.4568 30.2204C15.4568 29.65 14.8951 29.1883 14.201 29.1883H9.16699V22.0518H14.201C14.8951 22.0518 15.4568 21.5901 15.4568 21.0197C15.4568 20.4493 14.8951 19.9876 14.201 19.9876H9.16699V12.8504H14.201C14.8951 12.8504 15.4568 12.3887 15.4568 11.8183C15.4568 11.2479 14.8951 10.7862 14.201 10.7862H9.16699V4.69831C9.16699 3.46531 10.3876 2.46212 11.8879 2.46212H44.7067V58.3331H11.8879C10.3876 58.3331 9.16699 57.3299 9.16699 56.0969ZM57.6556 56.0969C57.6556 57.3299 56.435 58.3331 54.9347 58.3331H47.2183V2.46212H54.9347C56.435 2.46212 57.6556 3.46531 57.6556 4.69831V56.0969Z" fill="black"/>
</svg>
