<svg width="61" height="60" viewBox="0 0 61 60" fill="none" xmlns="http://www.w3.org/2000/svg">
<path d="M26.6038 24.9242C32.2188 24.9242 36.7861 20.3568 36.7861 14.7424C36.7861 9.12927 32.2181 4.5625 26.6038 4.5625C20.9912 4.5625 16.425 9.12927 16.425 14.7424C16.425 20.3568 20.9912 24.9242 26.6038 24.9242ZM26.6038 6.37556C31.2195 6.37556 34.9737 10.1291 34.9737 14.743C34.9737 19.3581 31.2189 23.1123 26.6038 23.1123C21.9905 23.1123 18.2375 19.3581 18.2375 14.743C18.2375 10.1291 21.9905 6.37556 26.6038 6.37556Z" fill="black"/>
<path d="M54.1162 43.4884H51.4072V29.5766C51.4072 29.3446 51.319 29.1223 51.1589 28.9537L48.9398 26.6096C49.6352 25.211 49.3277 23.4668 48.0844 22.415L45.6134 20.324C44.9047 19.7253 44.0063 19.4383 43.0832 19.5145C42.1582 19.5912 41.3185 20.0238 40.7192 20.7324C39.4837 22.1933 39.6667 24.3888 41.1276 25.6255L43.5979 27.7176C44.2492 28.268 45.0455 28.5369 45.8387 28.5369C46.5033 28.5369 47.163 28.3429 47.7339 27.972L49.5947 29.9379V43.4896H44.4443C44.2081 34.0117 36.4297 26.3722 26.8956 26.3722C17.3627 26.3722 9.58547 34.0117 9.34925 43.4896H7.09214C6.5913 43.4896 6.18591 43.8956 6.18591 44.3958V54.3202C6.18591 54.821 6.5913 55.2264 7.09214 55.2264H54.1162C54.6164 55.2264 55.0224 54.821 55.0224 54.3202V44.3958C55.0224 43.8944 54.6164 43.4884 54.1162 43.4884ZM44.7688 26.3329L42.2984 24.2407C41.6 23.6493 41.5124 22.5999 42.1033 21.9015C42.3896 21.5625 42.7908 21.3559 43.233 21.3197C43.2795 21.316 43.3261 21.3142 43.3726 21.3142C43.7641 21.3142 44.1405 21.4514 44.4425 21.7069L46.9135 23.7979C47.6113 24.3888 47.6989 25.4388 47.1074 26.1378C46.5178 26.8356 45.4666 26.9232 44.7688 26.3329ZM26.8956 28.1828C35.4304 28.1828 42.3963 35.0091 42.6319 43.4878H11.1617C11.3967 35.0097 18.362 28.1828 26.8956 28.1828ZM53.21 53.4128H7.99836V45.3008H53.21V53.4128Z" fill="black"/>
</svg>
