<svg width="100" height="100" viewBox="0 0 100 100" fill="none" xmlns="http://www.w3.org/2000/svg">
<path d="M79.54 15.0002L79.36 14.8202C79.2036 14.4868 78.9293 14.2232 78.59 14.0802C64.91 1.00018 44.92 -1.21982 27.28 8.42018C27.0761 8.53139 26.9008 8.68842 26.7679 8.87892C26.635 9.06942 26.5482 9.28817 26.5143 9.51794C26.4803 9.74771 26.5002 9.98223 26.5724 10.203C26.6445 10.4238 26.7669 10.6248 26.93 10.7902L55.86 40.0002L22.16 73.6702C20.987 74.8372 19.3996 75.4922 17.745 75.4922C16.0904 75.4922 14.503 74.8372 13.33 73.6702C12.7501 73.0915 12.29 72.4041 11.9761 71.6474C11.6621 70.8907 11.5005 70.0794 11.5005 69.2602C11.5005 68.4409 11.6621 67.6297 11.9761 66.873C12.29 66.1162 12.7501 65.4289 13.33 64.8502C13.4774 64.7129 13.5956 64.5473 13.6776 64.3633C13.7595 64.1793 13.8036 63.9806 13.8072 63.7792C13.8107 63.5778 13.7737 63.3778 13.6982 63.191C13.6228 63.0042 13.5105 62.8345 13.3681 62.6921C13.2256 62.5497 13.056 62.4374 12.8692 62.3619C12.6824 62.2865 12.4824 62.2494 12.281 62.253C12.0795 62.2566 11.8809 62.3006 11.6969 62.3826C11.5129 62.4646 11.3473 62.5828 11.21 62.7302C9.53184 64.4743 8.60504 66.8073 8.62883 69.2275C8.65263 71.6478 9.62511 73.9621 11.3372 75.6729C13.0493 77.3837 15.3644 78.3544 17.7846 78.3763C20.2049 78.3983 22.5372 77.4697 24.28 75.7902L58 42.1502L84.6 69.0602C84.7403 69.2007 84.9072 69.312 85.0909 69.3875C85.2745 69.463 85.4714 69.5013 85.67 69.5002H85.89C86.1242 69.4655 86.3469 69.3758 86.5399 69.2385C86.7328 69.1012 86.8905 68.9201 87 68.7102C96.45 51.0002 93.38 28.9402 79.54 15.0002ZM48.54 28.4302C48.7013 28.3665 48.8502 28.2751 48.98 28.1602C63.26 15.2502 74.58 16.3102 77.07 16.7402L77.36 17.0202C77.67 18.1802 81.1 32.2702 67.88 47.9002L48.54 28.4302ZM73.36 13.5002C67.83 13.6502 58.24 15.7302 46.99 25.8902C46.8276 26.0401 46.7012 26.2247 46.62 26.4302L30.5 10.1302C45.18 2.88018 61.33 4.23018 73.36 13.5002ZM85.26 65.5002L70 50.0002C80 38.3002 81.3 27.3702 81 21.2102C85.6542 27.5069 88.51 34.95 89.2621 42.7439C90.0142 50.5379 88.6343 58.3897 85.27 65.4602L85.26 65.5002Z" fill="black"/>
<path d="M63.5 72.08C63.5 72.4778 63.658 72.8594 63.9393 73.1407C64.2206 73.422 64.6022 73.58 65 73.58C65.3978 73.58 65.7794 73.422 66.0607 73.1407C66.342 72.8594 66.5 72.4778 66.5 72.08C66.5 67.86 62.8 64.37 58 63.76V61C58 60.6022 57.842 60.2206 57.5607 59.9393C57.2794 59.658 56.8978 59.5 56.5 59.5C56.1022 59.5 55.7206 59.658 55.4393 59.9393C55.158 60.2206 55 60.6022 55 61V63.76C50.2 64.37 46.5 67.87 46.5 72.08C46.5 76.29 50.2 79.78 55 80.39V91.22C51.86 90.69 49.5 88.51 49.5 85.92C49.5 85.5222 49.342 85.1406 49.0607 84.8593C48.7794 84.578 48.3978 84.42 48 84.42C47.6022 84.42 47.2206 84.578 46.9393 84.8593C46.658 85.1406 46.5 85.5222 46.5 85.92C46.5 90.14 50.2 93.63 55 94.24V97C55 97.3978 55.158 97.7794 55.4393 98.0607C55.7206 98.342 56.1022 98.5 56.5 98.5C56.8978 98.5 57.2794 98.342 57.5607 98.0607C57.842 97.7794 58 97.3978 58 97V94.24C62.8 93.63 66.5 90.13 66.5 85.92C66.5 81.71 62.8 78.22 58 77.61V66.78C61.14 67.32 63.5 69.49 63.5 72.08ZM49.5 72.08C49.5 69.49 51.86 67.32 55 66.78V77.37C51.86 76.84 49.5 74.67 49.5 72.08ZM63.5 85.92C63.5 88.51 61.14 90.68 58 91.22V80.63C61.14 81.16 63.5 83.33 63.5 85.92Z" fill="black"/>
</svg>
