<svg width="100" height="100" viewBox="0 0 100 100" fill="none" xmlns="http://www.w3.org/2000/svg">
<path d="M41.5454 41.0986C34.1746 41.0986 28.1776 47.0966 28.1776 54.4703C28.1776 55.2922 28.8436 55.9592 29.6664 55.9592H53.4213C54.2431 55.9592 54.9101 55.2922 54.9101 54.4703C54.9101 47.0976 48.9151 41.0986 41.5454 41.0986ZM31.2615 52.9815C31.9851 47.9532 36.3215 44.0763 41.5454 44.0763C46.7682 44.0763 51.1017 47.9532 51.8262 52.9815H31.2615Z" fill="black"/>
<path d="M41.333 39.9594C45.8055 39.9594 49.4442 36.3217 49.4442 31.8512C49.4442 27.3847 45.8055 23.751 41.333 23.751C36.8675 23.751 33.2347 27.3847 33.2347 31.8512C33.2347 36.3217 36.8675 39.9594 41.333 39.9594ZM41.333 26.7286C44.1638 26.7286 46.4665 29.0264 46.4665 31.8512C46.4665 34.68 44.1638 36.9817 41.333 36.9817C38.5092 36.9817 36.2124 34.68 36.2124 31.8512C36.2124 29.0264 38.5092 26.7286 41.333 26.7286Z" fill="black"/>
<path d="M90.0466 81.3965L74.5181 65.8779C74.2392 65.599 73.86 65.4422 73.465 65.4422C73.0709 65.4422 72.6908 65.599 72.4109 65.8779L69.863 68.4278L65.2794 63.8451C70.8714 57.9643 74.3136 50.0228 74.3136 41.2863C74.3136 23.2169 59.6129 8.51611 41.5434 8.51611C23.4749 8.51512 8.77417 23.2159 8.77417 41.2853C8.77417 59.3558 23.4749 74.0556 41.5444 74.0556C49.8084 74.0556 57.3628 70.9737 63.1335 65.9087L67.7598 70.534L65.6258 72.669C65.0451 73.2506 65.0451 74.1935 65.6268 74.7742L81.1543 90.2928C81.4332 90.5717 81.8124 90.7285 82.2074 90.7285C82.6025 90.7285 82.9806 90.5717 83.2605 90.2928L90.0476 83.5017C90.3265 83.2228 90.4834 82.8437 90.4834 82.4486C90.4824 82.0536 90.3255 81.6754 90.0466 81.3965ZM11.7518 41.2853C11.7518 24.8576 25.1166 11.4928 41.5444 11.4928C57.9722 11.4928 71.337 24.8576 71.337 41.2853C71.337 57.7131 57.9722 71.0779 41.5444 71.0779C25.1166 71.0779 11.7518 57.7131 11.7518 41.2853ZM82.2054 87.1345L68.7851 73.7201L73.467 69.0352L86.8883 82.4496L82.2054 87.1345Z" fill="black"/>
</svg>
