<svg width="50" height="50" viewBox="0 0 50 50" fill="none" xmlns="http://www.w3.org/2000/svg">
<path d="M39.77 7.50009L39.68 7.41009C39.6018 7.24342 39.4647 7.11162 39.295 7.04009C32.455 0.500092 22.46 -0.609909 13.64 4.21009C13.5381 4.26569 13.4504 4.34421 13.384 4.43946C13.3175 4.53471 13.2741 4.64409 13.2571 4.75897C13.2402 4.87386 13.2501 4.99111 13.2862 5.1015C13.3223 5.21189 13.3835 5.31239 13.465 5.39509L27.93 20.0001L11.08 36.8351C10.4935 37.4186 9.69983 37.7461 8.87251 37.7461C8.0452 37.7461 7.25153 37.4186 6.66501 36.8351C6.37505 36.5457 6.145 36.2021 5.98804 35.8237C5.83108 35.4453 5.75029 35.0397 5.75029 34.6301C5.75029 34.2205 5.83108 33.8149 5.98804 33.4365C6.145 33.0581 6.37505 32.7144 6.66501 32.4251C6.7387 32.3564 6.7978 32.2736 6.83879 32.1816C6.87979 32.0896 6.90183 31.9903 6.9036 31.8896C6.90538 31.7889 6.88686 31.6889 6.84914 31.5955C6.81141 31.5021 6.75527 31.4173 6.68405 31.3461C6.61283 31.2748 6.528 31.2187 6.43461 31.181C6.34122 31.1432 6.24119 31.1247 6.14049 31.1265C6.03979 31.1283 5.94047 31.1503 5.84847 31.1913C5.75648 31.2323 5.67367 31.2914 5.60501 31.3651C4.76594 32.2372 4.30254 33.4036 4.31443 34.6138C4.32633 35.8239 4.81257 36.981 5.66863 37.8364C6.52468 38.6918 7.6822 39.1772 8.89233 39.1882C10.1025 39.1991 11.2686 38.7348 12.14 37.8951L29 21.0751L42.3 34.5301C42.3702 34.6004 42.4536 34.656 42.5454 34.6937C42.6373 34.7315 42.7357 34.7507 42.835 34.7501H42.945C43.0621 34.7327 43.1735 34.6879 43.2699 34.6192C43.3664 34.5506 43.4452 34.4601 43.5 34.3551C48.225 25.5001 46.69 14.4701 39.77 7.50009ZM24.27 14.2151C24.3506 14.1832 24.4251 14.1375 24.49 14.0801C31.63 7.62509 37.29 8.15509 38.535 8.37009L38.68 8.51009C38.835 9.09009 40.55 16.1351 33.94 23.9501L24.27 14.2151ZM36.68 6.75009C33.915 6.82509 29.12 7.86509 23.495 12.9451C23.4138 13.02 23.3506 13.1123 23.31 13.2151L15.25 5.06509C22.59 1.44009 30.665 2.11509 36.68 6.75009ZM42.63 32.7501L35 25.0001C40 19.1501 40.65 13.6851 40.5 10.6051C42.8271 13.7535 44.255 17.475 44.6311 21.372C45.0071 25.2689 44.3172 29.1948 42.635 32.7301L42.63 32.7501Z" fill="black"/>
<path d="M31.75 36.04C31.75 36.2389 31.829 36.4297 31.9697 36.5703C32.1103 36.711 32.3011 36.79 32.5 36.79C32.6989 36.79 32.8897 36.711 33.0303 36.5703C33.171 36.4297 33.25 36.2389 33.25 36.04C33.25 33.93 31.4 32.185 29 31.88V30.5C29 30.3011 28.921 30.1103 28.7803 29.9697C28.6397 29.829 28.4489 29.75 28.25 29.75C28.0511 29.75 27.8603 29.829 27.7197 29.9697C27.579 30.1103 27.5 30.3011 27.5 30.5V31.88C25.1 32.185 23.25 33.935 23.25 36.04C23.25 38.145 25.1 39.89 27.5 40.195V45.61C25.93 45.345 24.75 44.255 24.75 42.96C24.75 42.7611 24.671 42.5703 24.5303 42.4297C24.3897 42.289 24.1989 42.21 24 42.21C23.8011 42.21 23.6103 42.289 23.4697 42.4297C23.329 42.5703 23.25 42.7611 23.25 42.96C23.25 45.07 25.1 46.815 27.5 47.12V48.5C27.5 48.6989 27.579 48.8897 27.7197 49.0303C27.8603 49.171 28.0511 49.25 28.25 49.25C28.4489 49.25 28.6397 49.171 28.7803 49.0303C28.921 48.8897 29 48.6989 29 48.5V47.12C31.4 46.815 33.25 45.065 33.25 42.96C33.25 40.855 31.4 39.11 29 38.805V33.39C30.57 33.66 31.75 34.745 31.75 36.04ZM24.75 36.04C24.75 34.745 25.93 33.66 27.5 33.39V38.685C25.93 38.42 24.75 37.335 24.75 36.04ZM31.75 42.96C31.75 44.255 30.57 45.34 29 45.61V40.315C30.57 40.58 31.75 41.665 31.75 42.96Z" fill="black"/>
</svg>
