<svg width="50" height="50" viewBox="0 0 50 50" fill="none" xmlns="http://www.w3.org/2000/svg">
<path d="M18.615 16.1848L17.39 23.3348C17.3645 23.4753 17.3797 23.6201 17.4337 23.7523C17.4877 23.8845 17.5784 23.9985 17.6949 24.0809C17.8115 24.1634 17.9492 24.2108 18.0918 24.2177C18.2344 24.2246 18.376 24.1906 18.5 24.1198L24.9 20.7448L31.32 24.1198C31.4439 24.1854 31.5837 24.2149 31.7235 24.2051C31.8633 24.1953 31.9975 24.1465 32.111 24.0642C32.2245 23.982 32.3126 23.8696 32.3655 23.7398C32.4183 23.6099 32.4338 23.4679 32.41 23.3298L31.185 16.1798L36.375 11.1198C36.4754 11.0222 36.5465 10.8984 36.5802 10.7625C36.6139 10.6266 36.6089 10.4839 36.5657 10.3507C36.5225 10.2175 36.4429 10.099 36.3358 10.0087C36.2288 9.91845 36.0986 9.85993 35.96 9.83981L28.78 8.79981L25.57 2.29981C25.5081 2.17434 25.4123 2.0687 25.2934 1.99484C25.1746 1.92098 25.0374 1.88184 24.8975 1.88184C24.7576 1.88184 24.6205 1.92098 24.5016 1.99484C24.3828 2.0687 24.287 2.17434 24.225 2.29981L21 8.79981L13.84 9.83981C13.7014 9.85993 13.5712 9.91845 13.4642 10.0087C13.3572 10.099 13.2775 10.2175 13.2343 10.3507C13.1912 10.4839 13.1861 10.6266 13.2198 10.7625C13.2535 10.8984 13.3246 11.0222 13.425 11.1198L18.615 16.1848ZM21.615 10.2248C21.7354 10.2074 21.8497 10.161 21.9481 10.0895C22.0466 10.0181 22.1261 9.92383 22.18 9.81481L24.89 4.31481L27.6 9.81481C27.6539 9.92383 27.7335 10.0181 27.8319 10.0895C27.9303 10.161 28.0447 10.2074 28.165 10.2248L34.23 11.1048L29.85 15.3848C29.7629 15.4699 29.6978 15.5749 29.6603 15.6907C29.6229 15.8066 29.6142 15.9298 29.635 16.0498L30.67 22.0898L25.25 19.2348C25.1421 19.1779 25.022 19.1481 24.9 19.1481C24.778 19.1481 24.6579 19.1779 24.55 19.2348L19.125 22.0848L20.16 16.0498C20.1809 15.9298 20.1722 15.8066 20.1347 15.6907C20.0972 15.5749 20.0321 15.4699 19.945 15.3848L15.555 11.1098L21.615 10.2248Z" fill="black"/>
<path d="M42.5 22.5002C42.5064 22.4437 42.5064 22.3866 42.5 22.3302V22.2952C42.4871 22.2521 42.4704 22.2102 42.45 22.1702L42.425 22.1252C42.4029 22.0898 42.3778 22.0563 42.35 22.0252L42.32 21.9902C42.2795 21.9483 42.2342 21.9114 42.185 21.8802L35.8 17.9252C35.6309 17.8191 35.4266 17.7845 35.2321 17.829C35.0375 17.8736 34.8686 17.9936 34.7625 18.1627C34.6564 18.3317 34.6218 18.536 34.6664 18.7306C34.7109 18.9252 34.8309 19.0941 35 19.2002L40.205 22.4302L20.37 32.3502L9.59 22.6952L14.735 20.2502C14.9147 20.1646 15.053 20.0112 15.1196 19.8237C15.1862 19.6361 15.1755 19.4298 15.09 19.2502C15.0045 19.0705 14.8511 18.9321 14.6635 18.8656C14.476 18.799 14.2697 18.8096 14.09 18.8952L7.93 21.8252C7.87614 21.8523 7.82577 21.8859 7.78 21.9252L7.745 21.9552C7.70578 21.9913 7.67058 22.0315 7.64 22.0752V22.1052C7.60632 22.1583 7.57944 22.2154 7.56 22.2752V22.3152C7.55426 22.3683 7.55426 22.422 7.56 22.4752C7.56 22.4752 7.56 22.4752 7.56 22.5002V37.6002C7.55958 37.7095 7.58308 37.8177 7.62885 37.917C7.67463 38.0163 7.74158 38.1044 7.825 38.1752L19.825 48.8252C19.8853 48.8736 19.9528 48.9124 20.025 48.9402H20.055C20.1307 48.9661 20.21 48.9796 20.29 48.9802C20.3432 48.9859 20.3968 48.9859 20.45 48.9802H20.485L20.6 48.9402L42.1 38.2902C42.2248 38.2244 42.3286 38.1248 42.3993 38.0027C42.4701 37.8807 42.505 37.7412 42.5 37.6002V22.5002ZM9 24.1802L19.5 33.5852V46.6352L9 37.2502V24.1802ZM41 37.1252L21 47.0652V33.7152L41 23.7152V37.1252Z" fill="black"/>
</svg>
