<svg width="80" height="80" viewBox="0 0 80 80" fill="none" xmlns="http://www.w3.org/2000/svg">
<path d="M29.784 25.896L27.824 37.336C27.7832 37.5608 27.8075 37.7925 27.8939 38.004C27.9804 38.2155 28.1253 38.3979 28.3119 38.5298C28.4984 38.6617 28.7187 38.7376 28.9469 38.7486C29.175 38.7596 29.4016 38.7053 29.6 38.592L39.84 33.192L50.112 38.592C50.3102 38.6969 50.5338 38.7442 50.7575 38.7284C50.9812 38.7127 51.196 38.6346 51.3776 38.503C51.5591 38.3714 51.7002 38.1916 51.7848 37.9839C51.8693 37.7762 51.894 37.549 51.856 37.328L49.896 25.888L58.2 17.792C58.3607 17.6358 58.4744 17.4378 58.5283 17.2203C58.5822 17.0028 58.5742 16.7746 58.5051 16.5614C58.436 16.3483 58.3086 16.1588 58.1373 16.0143C57.966 15.8698 57.7577 15.7762 57.536 15.744L46.048 14.08L40.912 3.67998C40.8129 3.47924 40.6596 3.31022 40.4694 3.19204C40.2793 3.07386 40.0599 3.01123 39.836 3.01123C39.6121 3.01123 39.3927 3.07386 39.2026 3.19204C39.0124 3.31022 38.8591 3.47924 38.76 3.67998L33.6 14.08L22.144 15.744C21.9223 15.7762 21.714 15.8698 21.5427 16.0143C21.3714 16.1588 21.244 16.3483 21.1749 16.5614C21.1058 16.7746 21.0978 17.0028 21.1517 17.2203C21.2056 17.4378 21.3193 17.6358 21.48 17.792L29.784 25.896ZM34.584 16.36C34.7766 16.3321 34.9595 16.2579 35.117 16.1436C35.2745 16.0293 35.4018 15.8784 35.488 15.704L39.824 6.90398L44.16 15.704C44.2462 15.8784 44.3735 16.0293 44.531 16.1436C44.6885 16.2579 44.8714 16.3321 45.064 16.36L54.768 17.768L47.76 24.616C47.6206 24.7521 47.5164 24.9201 47.4565 25.1055C47.3965 25.2908 47.3826 25.488 47.416 25.68L49.072 35.344L40.4 30.776C40.2274 30.6849 40.0352 30.6373 39.84 30.6373C39.6448 30.6373 39.4526 30.6849 39.28 30.776L30.6 35.336L32.256 25.68C32.2893 25.488 32.2754 25.2908 32.2155 25.1055C32.1556 24.9201 32.0514 24.7521 31.912 24.616L24.888 17.776L34.584 16.36Z" fill="black"/>
<path d="M68 35.9998C68.0103 35.9094 68.0103 35.8181 68 35.7278V35.6718C67.9794 35.6028 67.9526 35.5359 67.92 35.4718L67.88 35.3998C67.8446 35.3431 67.8044 35.2896 67.76 35.2398L67.712 35.1838C67.6471 35.1169 67.5746 35.0578 67.496 35.0078L57.28 28.6798C57.0095 28.51 56.6826 28.4547 56.3713 28.526C56.06 28.5972 55.7897 28.7892 55.62 29.0598C55.4503 29.3303 55.3949 29.6572 55.4662 29.9685C55.5375 30.2798 55.7295 30.55 56 30.7198L64.328 35.8878L32.592 51.7598L15.344 36.3118L23.576 32.3998C23.8635 32.2629 24.0849 32.0175 24.1914 31.7174C24.2979 31.4173 24.2809 31.0873 24.144 30.7998C24.0072 30.5123 23.7617 30.2909 23.4616 30.1844C23.1616 30.0779 22.8315 30.0949 22.544 30.2318L12.688 34.9198C12.6018 34.9632 12.5212 35.0169 12.448 35.0798L12.392 35.1278C12.3293 35.1855 12.2729 35.2499 12.224 35.3198V35.3678C12.1701 35.4527 12.1271 35.5441 12.096 35.6398V35.7038C12.0868 35.7889 12.0868 35.8747 12.096 35.9598C12.096 35.9598 12.096 35.9598 12.096 35.9998V60.1598C12.0953 60.3348 12.1329 60.5078 12.2062 60.6667C12.2794 60.8256 12.3865 60.9666 12.52 61.0798L31.72 78.1198C31.8165 78.1974 31.9244 78.2594 32.04 78.3038H32.088C32.2091 78.3453 32.336 78.3669 32.464 78.3678C32.5491 78.3769 32.6349 78.3769 32.72 78.3678H32.776L32.96 78.3038L67.36 61.2638C67.5597 61.1586 67.7257 60.9992 67.8389 60.8039C67.9521 60.6086 68.008 60.3854 68 60.1598V35.9998ZM14.4 38.6878L31.2 53.7358V74.6158L14.4 59.5998V38.6878ZM65.6 59.3998L33.6 75.3038V53.9438L65.6 37.9438V59.3998Z" fill="black"/>
</svg>
