<svg width="80" height="80" viewBox="0 0 80 80" fill="none" xmlns="http://www.w3.org/2000/svg">
<path d="M46.0768 43.702C45.3578 43.5591 44.6492 43.4426 44.2358 43.3892C42.8178 43.1881 41.3702 43.0771 39.8971 43.0771C38.6314 43.0771 37.3865 43.1633 36.1608 43.3126C35.4897 43.3916 34.8896 43.4945 34.5026 43.5615C20.1281 46.1207 9.17706 58.7029 9.17706 73.8027C9.17706 74.4635 9.71252 74.9997 10.3741 74.9997H69.4264C70.088 74.9997 70.6235 74.4635 70.6235 73.8027C70.6235 58.9774 60.0674 46.57 46.0768 43.702ZM43.836 45.7497V51.8576H36.654V45.6635C37.7193 45.5414 38.7998 45.4712 39.8971 45.4712C41.2345 45.472 42.548 45.5701 43.836 45.7497ZM41.3997 54.2524L44.0475 72.6065H35.6613L38.309 54.2524H41.3997ZM34.26 46.0369V53.0546C34.26 53.7154 34.7954 54.2516 35.457 54.2516H35.8903L33.2425 72.6057H11.5958C12.1464 59.449 21.7113 48.5826 34.26 46.0369ZM46.467 72.6065L43.8193 54.2524H45.033C45.6946 54.2524 46.23 53.7162 46.23 53.0554V46.1942C58.4371 48.9936 67.6645 59.694 68.2047 72.6065H46.467Z" fill="black"/>
<path d="M39.3815 39.6686C49.1108 39.6686 57.027 31.7556 57.027 22.0295C57.027 12.3027 49.1116 4.38965 39.3815 4.38965C29.6547 4.38965 21.7416 12.3027 21.7416 22.0295C21.7416 31.7556 29.6547 39.6686 39.3815 39.6686ZM39.3815 6.78287C47.7909 6.78287 54.633 13.6218 54.633 22.0287C54.633 30.4349 47.7909 37.2738 39.3815 37.2738C30.9746 37.2738 24.1357 30.4349 24.1357 22.0287C24.1357 13.6226 30.9746 6.78287 39.3815 6.78287Z" fill="black"/>
<path d="M35.5767 23.9281C36.9548 23.9281 38.08 22.8755 38.222 21.5341H40.6727C40.8148 22.8755 41.9392 23.9281 43.3181 23.9281H49.1435C50.6175 23.9281 51.8169 22.7287 51.8169 21.254V18.6206C51.8169 17.1467 50.6175 15.9473 49.1435 15.9473H43.3181C41.8442 15.9473 40.6448 17.1467 40.6448 18.6206V19.1393H38.2508V18.6206C38.2508 17.1467 37.0514 15.9473 35.5775 15.9473H29.752C28.2781 15.9473 27.0787 17.1467 27.0787 18.6206V21.254C27.0787 22.7287 28.2781 23.9281 29.752 23.9281H35.5767ZM43.038 18.6206C43.038 18.4674 43.1633 18.3413 43.3173 18.3413H49.1427C49.2968 18.3413 49.422 18.4666 49.422 18.6206V21.254C49.422 21.408 49.2968 21.5341 49.1427 21.5341H43.3173C43.1633 21.5341 43.038 21.4088 43.038 21.254V18.6206ZM29.4719 21.254V18.6206C29.4719 18.4674 29.5972 18.3413 29.7512 18.3413H35.5767C35.7307 18.3413 35.856 18.4666 35.856 18.6206V21.254C35.856 21.408 35.7307 21.5341 35.5767 21.5341H29.7512C29.5972 21.5341 29.4719 21.4088 29.4719 21.254Z" fill="black"/>
</svg>
