<svg width="80" height="80" viewBox="0 0 80 80" fill="none" xmlns="http://www.w3.org/2000/svg">
<path d="M56.9456 9.35497C56.7624 8.94697 56.3688 8.67417 55.9224 8.64777C55.4664 8.61417 55.0512 8.84457 54.8216 9.22777L49.9984 17.2574C49.6568 17.8254 49.8416 18.563 50.4096 18.9038C50.9768 19.2454 51.7152 19.0622 52.0568 18.4934L54.4688 14.4774C53.596 22.4726 49.4624 30.4406 42.8192 36.7422C34.9488 44.2078 24.7792 48.319 14.184 48.319C13.5208 48.319 12.984 48.8566 12.984 49.519C12.984 50.1814 13.5208 50.719 14.184 50.719C25.3968 50.719 36.1528 46.3734 44.4712 38.4838C51.46 31.855 55.8424 23.4534 56.8336 14.9774L58.624 18.979C58.8232 19.4246 59.2616 19.6894 59.72 19.6894C59.884 19.6894 60.0504 19.6558 60.2088 19.5846C60.8144 19.3142 61.0856 18.6038 60.8144 17.999L56.9456 9.35497Z" fill="black"/>
<path d="M14.4816 57.1455C13.8184 57.1455 13.2816 57.6831 13.2816 58.3455V70.1551C13.2816 70.8175 13.8184 71.3551 14.4816 71.3551C15.1448 71.3551 15.6816 70.8175 15.6816 70.1551V58.3455C15.6816 57.6831 15.1448 57.1455 14.4816 57.1455Z" fill="black"/>
<path d="M32.5632 52.1396C31.9 52.1396 31.3632 52.6772 31.3632 53.3396V70.1548C31.3632 70.8172 31.9 71.3548 32.5632 71.3548C33.2264 71.3548 33.7632 70.8172 33.7632 70.1548V53.3396C33.7632 52.6772 33.2264 52.1396 32.5632 52.1396Z" fill="black"/>
<path d="M50.2352 40.2031C49.5728 40.2031 49.0352 40.7407 49.0352 41.4031V70.1543C49.0352 70.8167 49.5728 71.3543 50.2352 71.3543C50.8976 71.3543 51.4352 70.8167 51.4352 70.1543V41.4031C51.4352 40.7407 50.8976 40.2031 50.2352 40.2031Z" fill="black"/>
<path d="M65.8168 11.4526C65.1544 11.4526 64.6168 11.9894 64.6168 12.6526V70.1542C64.6168 70.8166 65.1544 71.3542 65.8168 71.3542C66.4792 71.3542 67.0168 70.8166 67.0168 70.1542V12.6526C67.0168 11.9894 66.48 11.4526 65.8168 11.4526Z" fill="black"/>
</svg>
