<svg width="50" height="50" viewBox="0 0 50 50" fill="none" xmlns="http://www.w3.org/2000/svg">
<path d="M35.591 5.84685C35.4765 5.59185 35.2305 5.42135 34.9515 5.40485C34.6665 5.38385 34.407 5.52785 34.2635 5.76735L31.249 10.7859C31.0355 11.1409 31.151 11.6019 31.506 11.8149C31.8605 12.0284 32.322 11.9139 32.5355 11.5584L34.043 9.04835C33.4975 14.0454 30.914 19.0254 26.762 22.9639C21.843 27.6299 15.487 30.1994 8.86499 30.1994C8.45049 30.1994 8.11499 30.5354 8.11499 30.9494C8.11499 31.3634 8.45049 31.6994 8.86499 31.6994C15.873 31.6994 22.5955 28.9834 27.7945 24.0524C32.1625 19.9094 34.9015 14.6584 35.521 9.36085L36.64 11.8619C36.7645 12.1404 37.0385 12.3059 37.325 12.3059C37.4275 12.3059 37.5315 12.2849 37.6305 12.2404C38.009 12.0714 38.1785 11.6274 38.009 11.2494L35.591 5.84685Z" fill="black"/>
<path d="M9.05096 35.7158C8.63646 35.7158 8.30096 36.0518 8.30096 36.4658V43.8468C8.30096 44.2608 8.63646 44.5968 9.05096 44.5968C9.46546 44.5968 9.80096 44.2608 9.80096 43.8468V36.4658C9.80096 36.0518 9.46546 35.7158 9.05096 35.7158Z" fill="black"/>
<path d="M20.352 32.5874C19.9375 32.5874 19.602 32.9234 19.602 33.3374V43.8469C19.602 44.2609 19.9375 44.5969 20.352 44.5969C20.7665 44.5969 21.102 44.2609 21.102 43.8469V33.3374C21.102 32.9234 20.7665 32.5874 20.352 32.5874Z" fill="black"/>
<path d="M31.397 25.127C30.983 25.127 30.647 25.463 30.647 25.877V43.8465C30.647 44.2605 30.983 44.5965 31.397 44.5965C31.811 44.5965 32.147 44.2605 32.147 43.8465V25.877C32.147 25.463 31.811 25.127 31.397 25.127Z" fill="black"/>
<path d="M41.1355 7.15771C40.7215 7.15771 40.3855 7.49321 40.3855 7.90771V43.8462C40.3855 44.2602 40.7215 44.5962 41.1355 44.5962C41.5495 44.5962 41.8855 44.2602 41.8855 43.8462V7.90771C41.8855 7.49321 41.55 7.15771 41.1355 7.15771Z" fill="black"/>
</svg>
