<svg width="59" height="78" viewBox="0 0 59 78" fill="none" xmlns="http://www.w3.org/2000/svg">
<path d="M53.0278 7.04775H40.3585V1.62942C40.3585 0.991973 39.8008 0.434204 39.1633 0.434204H20.2788C19.6414 0.434204 19.0836 0.991973 19.0836 1.62942V7.04775H5.69717C2.90832 7.04775 0.677246 9.27882 0.677246 12.0677V72.1473C0.677246 74.9362 2.90832 77.1673 5.69717 77.1673H53.1075C55.8964 77.1673 58.1274 74.9362 58.1274 72.1473V12.0677C58.0478 9.27882 55.8167 7.04775 53.0278 7.04775ZM20.2788 22.5059H39.1633C39.8008 22.5059 40.3585 21.9481 40.3585 21.3107V16.1314H48.725V67.6852H9.99996V16.2111H19.0836V21.3107C19.0836 22.0278 19.6414 22.5059 20.2788 22.5059ZM37.9681 2.82464V14.9362V20.1155H21.4741V14.9362V8.16329V2.82464H37.9681ZM55.6573 72.0677C55.6573 73.5019 54.4621 74.6971 53.0278 74.6971H5.69717C4.2629 74.6971 3.06768 73.5019 3.06768 72.0677V12.0677C3.06768 10.6334 4.2629 9.43819 5.69717 9.43819H19.0836V13.8207H8.80474C8.16729 13.8207 7.60952 14.3784 7.60952 15.0159V68.9601C7.60952 69.5975 8.16729 70.1553 8.80474 70.1553H49.9203C50.5577 70.1553 51.1155 69.5975 51.1155 68.9601V15.0159C51.1155 14.3784 50.5577 13.8207 49.9203 13.8207H40.3585V9.43819H53.0278C54.4621 9.43819 55.6573 10.6334 55.6573 12.0677V72.0677Z" fill="black"/>
<path d="M12.9482 35.9721C12.9482 36.6095 13.506 37.1673 14.1435 37.1673H44.8208C45.4582 37.1673 46.016 36.6095 46.016 35.9721C46.016 35.3346 45.4582 34.7769 44.8208 34.7769H14.1435C13.506 34.7769 12.9482 35.3346 12.9482 35.9721Z" fill="black"/>
<path d="M44.8208 43.1433H14.1435C13.506 43.1433 12.9482 43.7011 12.9482 44.3385C12.9482 44.976 13.506 45.5337 14.1435 45.5337H44.8208C45.4582 45.5337 46.016 44.976 46.016 44.3385C46.016 43.7011 45.4582 43.1433 44.8208 43.1433Z" fill="black"/>
<path d="M44.8208 51.9083H14.1435C13.506 51.9083 12.9482 52.4661 12.9482 53.1035C12.9482 53.741 13.506 54.2988 14.1435 54.2988H44.8208C45.4582 54.2988 46.016 53.741 46.016 53.1035C46.016 52.4661 45.4582 51.9083 44.8208 51.9083Z" fill="black"/>
</svg>
