<svg width="20" height="21" viewBox="0 0 20 21" fill="none" xmlns="http://www.w3.org/2000/svg">
<g clip-path="url(#clip0_44_314)">
<path d="M10.6287 1.31195C10.9738 1.31195 11.2537 1.59177 11.2537 1.93695C11.2537 2.25747 11.0124 2.52164 10.7016 2.55775L10.6287 2.56195H4.375C3.37645 2.56195 2.56021 3.34253 2.50318 4.32678L2.5 4.43695V15.687C2.5 16.6855 3.28057 17.5017 4.26483 17.5588L4.375 17.562H15.625C16.6236 17.562 17.4398 16.7814 17.4968 15.7971L17.5 15.687V9.43928C17.5 9.0941 17.7798 8.81428 18.125 8.81428C18.4455 8.81428 18.7097 9.05555 18.7458 9.36639L18.75 9.43928V15.687C18.75 17.3674 17.4236 18.7381 15.7606 18.8091L15.625 18.812H4.375C2.69453 18.812 1.32386 17.4855 1.25289 15.8225L1.25 15.687V4.43695C1.25 2.75648 2.57644 1.38581 4.23944 1.31484L4.375 1.31195H10.6287ZM17.9296 2.56139C18.6618 3.29362 18.6618 4.48081 17.9296 5.21304L11.8777 11.2649C11.55 11.5927 11.1534 11.8434 10.7168 11.999L8.46601 12.8009C8.14085 12.9168 7.78334 12.7471 7.66749 12.4219C7.61778 12.2824 7.61923 12.1298 7.67158 11.9913L8.58876 9.56384C8.71415 9.23195 8.90875 8.93056 9.15962 8.6797L15.2779 2.56139C16.0102 1.82916 17.1973 1.82916 17.9296 2.56139ZM16.2163 3.39671L16.1618 3.44527L10.0435 9.56358C9.94316 9.66393 9.86082 9.78044 9.79979 9.90799L9.75807 10.0056L9.31824 11.1706L10.2973 10.8215C10.5156 10.7437 10.7172 10.6262 10.8921 10.4755L10.9938 10.3811L17.0457 4.32916C17.2898 4.08508 17.2898 3.68935 17.0457 3.44527C16.8191 3.21863 16.4616 3.20244 16.2163 3.39671Z" fill="black"/>
</g>
<defs>
<clipPath id="clip0_44_314">
<rect width="20" height="20" fill="white" transform="translate(0 0.0619507)"/>
</clipPath>
</defs>
</svg>
