<svg width="40" height="40" viewBox="0 0 40 40" fill="none" xmlns="http://www.w3.org/2000/svg">
<path d="M25.9516 15.9921C25.9572 15.959 25.96 15.9252 25.96 15.8905C25.96 13.5288 24.5557 11.4936 22.5408 10.5625V6.60765C22.5408 6.27722 22.273 6.00977 21.9429 6.00977H18.2006C17.8701 6.00977 17.6027 6.27722 17.6027 6.60765V10.5932C15.7002 11.5155 14.3621 13.4722 14.2194 15.8546C13.6805 24.933 10.8314 27.8056 10.8027 27.8339L11.2152 28.2668V28.8647H28.9626C29.2097 28.8647 29.4301 28.7112 29.519 28.4804C29.6079 28.2501 29.5441 27.9874 29.3612 27.8212C29.3289 27.7921 26.1114 24.7767 25.9516 15.9921ZM18.7988 7.20554H21.3455V10.1579C20.9409 10.0694 20.522 10.0196 20.0911 10.0196C19.6455 10.0196 19.2146 10.075 18.7988 10.1707V7.20554ZM12.3978 27.6693C13.4306 26.0789 15.0174 22.5992 15.4136 15.926C15.5742 13.2406 17.5851 11.2154 20.0907 11.2154C22.6222 11.2154 24.6905 13.2394 24.7622 15.7546C24.7558 15.7912 24.753 15.8287 24.7534 15.8666C24.8483 22.5016 26.6013 26.0741 27.6986 27.6689L12.3978 27.6693Z" fill="#8E0532"/>
<path d="M23.5154 29.3428C23.1854 29.3428 22.9175 29.6106 22.9175 29.9407C22.9175 31.4362 21.701 32.6527 20.2059 32.6527C18.7107 32.6527 17.4942 31.4362 17.4942 29.9407C17.4942 29.6106 17.2268 29.3428 16.8964 29.3428C16.5659 29.3428 16.2985 29.6106 16.2985 29.9407C16.2985 32.0955 18.0511 33.8485 20.2059 33.8485C22.3607 33.8485 24.1133 32.0959 24.1133 29.9407C24.1133 29.6106 23.8454 29.3428 23.5154 29.3428Z" fill="#8E0532"/>
<path d="M8.23213 24.206C6.91717 23.235 6.16264 21.7423 6.16264 20.1116C6.16264 18.5527 6.86257 17.1027 8.08306 16.1333C8.34135 15.928 8.38479 15.5517 8.17912 15.2934C7.97344 15.0348 7.59717 14.9917 7.33928 15.1974C5.8318 16.3952 4.96686 18.1864 4.96686 20.112C4.96686 22.0966 5.92189 23.9876 7.52184 25.169C7.62866 25.2475 7.75342 25.2858 7.87659 25.2858C8.05954 25.2858 8.2409 25.2017 8.35809 25.043C8.5538 24.7764 8.49759 24.4021 8.23213 24.206Z" fill="#8E0532"/>
<path d="M2.30265 20.1112C2.30265 17.5192 3.42708 15.0567 5.38776 13.3547C5.63688 13.1382 5.66359 12.7604 5.44715 12.5112C5.23032 12.2617 4.85285 12.235 4.60373 12.4519C2.38157 14.381 1.10687 17.1728 1.10687 20.1116C1.10687 23.1425 2.45172 25.9944 4.79585 27.9356C4.90746 28.0277 5.04258 28.0731 5.17691 28.0731C5.3491 28.0731 5.5197 27.999 5.63768 27.8567C5.84814 27.602 5.81266 27.2253 5.55836 27.0148C3.48926 25.3009 2.30265 22.785 2.30265 20.1112Z" fill="#8E0532"/>
<path d="M32.5224 15.3978C32.2641 15.1917 31.8882 15.2352 31.6821 15.4931C31.4765 15.7514 31.5195 16.1276 31.7774 16.3329C32.9979 17.3047 33.6982 18.7552 33.6982 20.3121C33.6982 21.9419 32.9429 23.4342 31.6263 24.406C31.3605 24.6021 31.3039 24.9768 31.5004 25.2423C31.6176 25.4009 31.7985 25.485 31.9819 25.485C32.1054 25.485 32.2298 25.4467 32.3366 25.3682C33.9386 24.186 34.8944 22.2959 34.8944 20.3117C34.894 18.3888 34.0294 16.5976 32.5224 15.3978Z" fill="#8E0532"/>
<path d="M35.2548 12.652C35.0048 12.4352 34.6278 12.4619 34.4113 12.7114C34.1949 12.961 34.2216 13.3384 34.4707 13.5549C36.4318 15.2573 37.5566 17.7198 37.5566 20.3114C37.5566 22.9864 36.3692 25.5023 34.2997 27.2142C34.045 27.4247 34.0095 27.8018 34.22 28.0561C34.3384 28.1988 34.5094 28.2729 34.6812 28.2729C34.8155 28.2729 34.9506 28.2283 35.0618 28.1358C37.4072 26.1954 38.7524 23.3439 38.7524 20.311C38.7528 17.3738 37.4777 14.5816 35.2548 12.652Z" fill="#8E0532"/>
</svg>
