<svg width="60" height="60" viewBox="0 0 60 60" fill="none" xmlns="http://www.w3.org/2000/svg">
<g clip-path="url(#clip0_54_7)">
<path d="M30 31.2002C26.8979 31.2034 23.9238 32.4371 21.7303 34.6306C19.5369 36.824 18.3032 39.7981 18.3 42.9002C18.3 43.1389 18.3948 43.3678 18.5636 43.5366C18.7324 43.7054 18.9613 43.8002 19.2 43.8002H40.8C41.0387 43.8002 41.2676 43.7054 41.4364 43.5366C41.6052 43.3678 41.7 43.1389 41.7 42.9002C41.6968 39.7981 40.4631 36.824 38.2696 34.6306C36.0761 32.4371 33.102 31.2034 30 31.2002ZM20.142 42.0002C20.3613 39.5363 21.4952 37.2437 23.3202 35.5739C25.1453 33.9041 27.5293 32.9781 30.003 32.9781C32.4767 32.9781 34.8607 33.9041 36.6858 35.5739C38.5108 37.2437 39.6446 39.5363 39.864 42.0002H20.142Z" fill="black"/>
<path d="M29.4 28.5002C30.7647 28.5002 32.0987 28.0955 33.2334 27.3373C34.3681 26.5792 35.2525 25.5015 35.7748 24.2407C36.297 22.9799 36.4337 21.5925 36.1674 20.2541C35.9012 18.9156 35.244 17.6861 34.279 16.7212C33.3141 15.7562 32.0846 15.099 30.7461 14.8328C29.4077 14.5665 28.0203 14.7032 26.7595 15.2254C25.4987 15.7477 24.421 16.6321 23.6629 17.7668C22.9047 18.9015 22.5 20.2355 22.5 21.6002C22.5016 23.4297 23.2291 25.1838 24.5227 26.4775C25.8164 27.7711 27.5705 28.4986 29.4 28.5002ZM29.4 16.5002C30.4087 16.5002 31.3947 16.7993 32.2334 17.3597C33.0721 17.9201 33.7258 18.7166 34.1118 19.6485C34.4978 20.5804 34.5988 21.6059 34.402 22.5952C34.2052 23.5845 33.7195 24.4932 33.0062 25.2064C32.293 25.9197 31.3843 26.4054 30.395 26.6022C29.4057 26.799 28.3802 26.698 27.4483 26.312C26.5164 25.926 25.7199 25.2723 25.1595 24.4336C24.5991 23.5949 24.3 22.6089 24.3 21.6002C24.3016 20.2481 24.8394 18.9518 25.7955 17.9957C26.7516 17.0396 28.0479 16.5018 29.4 16.5002Z" fill="black"/>
<path d="M58.2 28.8001H55.17C54.8683 22.4343 52.166 16.4191 47.607 11.9659C43.0481 7.51276 36.9712 4.95228 30.6 4.8001V1.5001C30.6 1.2614 30.5052 1.03248 30.3364 0.863702C30.1676 0.694919 29.9387 0.600098 29.7 0.600098C29.4613 0.600098 29.2324 0.694919 29.0636 0.863702C28.8948 1.03248 28.8 1.2614 28.8 1.5001V4.8301C22.5414 5.13558 16.6204 7.75904 12.1897 12.1898C7.75894 16.6205 5.13547 22.5415 4.82999 28.8001H1.79999C1.5613 28.8001 1.33238 28.8949 1.1636 29.0637C0.994815 29.2325 0.899994 29.4614 0.899994 29.7001C0.899994 29.9388 0.994815 30.1677 1.1636 30.3365C1.33238 30.5053 1.5613 30.6001 1.79999 30.6001H4.79999C4.95218 36.9713 7.51265 43.0482 11.9658 47.6071C16.419 52.166 22.4342 54.8684 28.8 55.1701V58.5001C28.8 58.7388 28.8948 58.9677 29.0636 59.1365C29.2324 59.3053 29.4613 59.4001 29.7 59.4001C29.9387 59.4001 30.1676 59.3053 30.3364 59.1365C30.5052 58.9677 30.6 58.7388 30.6 58.5001V55.2001C37.0764 55.0476 43.2453 52.4069 47.8261 47.8262C52.4068 43.2454 55.0475 37.0765 55.2 30.6001H58.2C58.4387 30.6001 58.6676 30.5053 58.8364 30.3365C59.0052 30.1677 59.1 29.9388 59.1 29.7001C59.1 29.4614 59.0052 29.2325 58.8364 29.0637C58.6676 28.8949 58.4387 28.8001 58.2 28.8001ZM30.6 53.4001V50.7001C30.6 50.4614 30.5052 50.2325 30.3364 50.0637C30.1676 49.8949 29.9387 49.8001 29.7 49.8001C29.4613 49.8001 29.2324 49.8949 29.0636 50.0637C28.8948 50.2325 28.8 50.4614 28.8 50.7001V53.3701C22.9116 53.0697 17.3536 50.5574 13.2376 46.3358C9.12165 42.1141 6.75108 36.4942 6.59999 30.6001H9.59999C9.83869 30.6001 10.0676 30.5053 10.2364 30.3365C10.4052 30.1677 10.5 29.9388 10.5 29.7001C10.5 29.4614 10.4052 29.2325 10.2364 29.0637C10.0676 28.8949 9.83869 28.8001 9.59999 28.8001H6.62999C6.93469 23.0191 9.36827 17.5553 13.4618 13.4619C17.5552 9.36837 23.019 6.9348 28.8 6.6301V9.3001C28.8 9.53879 28.8948 9.76771 29.0636 9.93649C29.2324 10.1053 29.4613 10.2001 29.7 10.2001C29.9387 10.2001 30.1676 10.1053 30.3364 9.93649C30.5052 9.76771 30.6 9.53879 30.6 9.3001V6.6001C36.4941 6.75118 42.114 9.12175 46.3357 13.2377C50.5573 17.3537 53.0696 22.9117 53.37 28.8001H50.4C50.1613 28.8001 49.9324 28.8949 49.7636 29.0637C49.5948 29.2325 49.5 29.4614 49.5 29.7001C49.5 29.9388 49.5948 30.1677 49.7636 30.3365C49.9324 30.5053 50.1613 30.6001 50.4 30.6001H53.4C53.248 36.5992 50.7971 42.3106 46.5538 46.5539C42.3105 50.7972 36.5991 53.2481 30.6 53.4001Z" fill="black"/>
</g>
<defs>
<clipPath id="clip0_54_7">
<rect width="60" height="60" fill="white"/>
</clipPath>
</defs>
</svg>
