<svg width="60" height="60" viewBox="0 0 60 60" fill="none" xmlns="http://www.w3.org/2000/svg">
<path d="M20.0054 25.748H14.5939C14.0982 25.748 13.697 26.1492 13.697 26.6449V32.0528C13.697 32.5484 14.0982 32.9496 14.5939 32.9496H20.0054C20.501 32.9496 20.9022 32.5484 20.9022 32.0528V26.6449C20.9022 26.1498 20.5004 25.748 20.0054 25.748ZM19.1085 31.1566H15.4907V27.5423H19.1085V31.1566Z" fill="#231F20"/>
<path d="M32.6275 25.748H27.2142C26.7186 25.748 26.3174 26.1492 26.3174 26.6449V32.0528C26.3174 32.5484 26.7186 32.9496 27.2142 32.9496H32.6275C33.1232 32.9496 33.5243 32.5484 33.5243 32.0528V26.6449C33.5243 26.1498 33.1232 25.748 32.6275 25.748ZM31.7307 31.1566H28.1111V27.5423H31.7307V31.1566Z" fill="#231F20"/>
<path d="M20.0054 38.0718H14.5939C14.0982 38.0718 13.697 38.4736 13.697 38.9686V44.3801C13.697 44.8758 14.0982 45.2769 14.5939 45.2769H20.0054C20.501 45.2769 20.9022 44.8758 20.9022 44.3801V38.9686C20.9022 38.4736 20.5004 38.0718 20.0054 38.0718ZM19.1085 43.4833H15.4907V39.8654H19.1085V43.4833Z" fill="#231F20"/>
<path d="M32.6275 38.0718H27.2142C26.7186 38.0718 26.3174 38.4736 26.3174 38.9686V44.3801C26.3174 44.8758 26.7186 45.2769 27.2142 45.2769H32.6275C33.1232 45.2769 33.5243 44.8758 33.5243 44.3801V38.9686C33.5243 38.4736 33.1232 38.0718 32.6275 38.0718ZM31.7307 43.4833H28.1111V39.8654H31.7307V43.4833Z" fill="#231F20"/>
<path d="M44.8561 38.0718H39.447C38.9514 38.0718 38.5502 38.4736 38.5502 38.9686V44.3801C38.5502 44.8758 38.9514 45.2769 39.447 45.2769H44.8561C45.3518 45.2769 45.7529 44.8758 45.7529 44.3801V38.9686C45.7529 38.4736 45.3512 38.0718 44.8561 38.0718ZM43.9593 43.4833H40.3438V39.8654H43.9593V43.4833Z" fill="#231F20"/>
<path d="M51.4424 9.64519H45.9951V8.60546C45.9951 6.75798 44.4926 5.25488 42.6463 5.25488C40.7988 5.25488 39.2957 6.75798 39.2957 8.60546V9.64519H33.2379V8.60546C33.2379 6.75798 31.7354 5.25488 29.8891 5.25488C28.0404 5.25488 26.5368 6.75798 26.5368 8.60546V9.64519H20.4807V8.60546C20.4807 6.75798 18.9788 5.25488 17.132 5.25488C15.2833 5.25488 13.7796 6.75798 13.7796 8.60546V9.64519H8.34776C7.85211 9.64519 7.45093 10.0464 7.45093 10.542V53.6379C7.45093 54.1329 7.85211 54.5347 8.34776 54.5347H51.4436C51.9393 54.5347 52.3405 54.1329 52.3405 53.6379V10.542C52.3393 10.0464 51.9381 9.64519 51.4424 9.64519ZM41.0888 8.60546C41.0888 7.74629 41.7871 7.04855 42.6457 7.04855C43.5031 7.04855 44.2008 7.74689 44.2008 8.60546V13.1949C44.2008 14.0534 43.5031 14.7518 42.6457 14.7518C41.7871 14.7518 41.0888 14.0534 41.0888 13.1949V8.60546ZM29.8885 7.04795C30.7459 7.04795 31.4436 7.74629 31.4436 8.60486V13.1943C31.4436 14.0528 30.7459 14.7512 29.8885 14.7512C29.0288 14.7512 28.3298 14.0528 28.3298 13.1943V10.6401C28.3334 10.6072 28.34 10.5755 28.34 10.5414C28.34 10.5073 28.3334 10.4757 28.3298 10.4428V8.60486C28.3298 7.74629 29.0294 7.04795 29.8885 7.04795ZM15.5727 8.60546C15.5727 7.74629 16.2722 7.04855 17.1314 7.04855C17.9887 7.04855 18.6865 7.74689 18.6865 8.60546V13.1949C18.6865 14.0534 17.9887 14.7518 17.1314 14.7518C16.2716 14.7518 15.5727 14.0534 15.5727 13.1949V8.60546ZM50.5456 52.7405H9.2434V11.4383H13.7784V13.1943C13.7784 15.0417 15.2827 16.5448 17.1308 16.5448C18.977 16.5448 20.4795 15.0417 20.4795 13.1943V11.4383H26.5356V13.1943C26.5356 15.0417 28.0399 16.5448 29.8879 16.5448C31.7342 16.5448 33.2367 15.0417 33.2367 13.1943V11.4383H39.2945V13.1943C39.2945 15.0417 40.7976 16.5448 42.6451 16.5448C44.4914 16.5448 45.9939 15.0417 45.9939 13.1943V11.4383H50.5444V52.7405H50.5456Z" fill="#231F20"/>
<path d="M45.848 23.1557L41.2718 28.7962L39.3627 26.9738C39.0046 26.6318 38.4372 26.645 38.0946 27.0031C37.7526 27.3619 37.7657 27.9293 38.1239 28.2713L40.7361 30.7651C40.9035 30.9247 41.1253 31.0132 41.3555 31.0132C41.3746 31.0132 41.3931 31.0126 41.4123 31.0114C41.6622 30.9958 41.8942 30.8757 42.052 30.6814L47.2411 24.2863C47.5532 23.9019 47.494 23.3369 47.1096 23.0248C46.7251 22.7121 46.1601 22.7713 45.848 23.1557Z" fill="#231F20"/>
</svg>
