<svg width="61" height="60" viewBox="0 0 61 60" fill="none" xmlns="http://www.w3.org/2000/svg">
<path d="M20.0133 25.375H14.1767C13.6811 25.375 13.2799 25.7762 13.2799 26.2718V32.1084C13.2799 32.6035 13.6811 33.0053 14.1767 33.0053H20.0133C20.509 33.0053 20.9102 32.6035 20.9102 32.1084V26.2718C20.9102 25.7768 20.509 25.375 20.0133 25.375ZM19.1165 31.2116H15.0736V27.1687H19.1165V31.2116Z" fill="black"/>
<path d="M33.6261 25.375H27.7895C27.2939 25.375 26.8927 25.7762 26.8927 26.2718V32.1084C26.8927 32.6035 27.2939 33.0053 27.7895 33.0053H33.6261C34.1212 33.0053 34.523 32.6035 34.523 32.1084V26.2718C34.523 25.7768 34.1212 25.375 33.6261 25.375ZM32.7293 31.2116H28.6864V27.1687H32.7293V31.2116Z" fill="black"/>
<path d="M46.8191 25.375H40.9825C40.4875 25.375 40.0857 25.7762 40.0857 26.2718V32.1084C40.0857 32.6035 40.4875 33.0053 40.9825 33.0053H46.8191C47.3142 33.0053 47.716 32.6035 47.716 32.1084V26.2718C47.716 25.7768 47.3142 25.375 46.8191 25.375ZM45.9223 31.2116H41.8794V27.1687H45.9223V31.2116Z" fill="black"/>
<path d="M20.0133 38.6699H14.1767C13.6811 38.6699 13.2799 39.0717 13.2799 39.5668V45.4034C13.2799 45.8984 13.6811 46.3002 14.1767 46.3002H20.0133C20.509 46.3002 20.9102 45.8984 20.9102 45.4034V39.5668C20.9102 39.0717 20.509 38.6699 20.0133 38.6699ZM19.1165 44.5065H15.0736V40.4636H19.1165V44.5065Z" fill="black"/>
<path d="M33.6261 38.6699H27.7895C27.2939 38.6699 26.8927 39.0717 26.8927 39.5668V45.4034C26.8927 45.8984 27.2939 46.3002 27.7895 46.3002H33.6261C34.1212 46.3002 34.523 45.8984 34.523 45.4034V39.5668C34.523 39.0717 34.1212 38.6699 33.6261 38.6699ZM32.7293 44.5065H28.6864V40.4636H32.7293V44.5065Z" fill="black"/>
<path d="M46.8191 38.6699H40.9825C40.4875 38.6699 40.0857 39.0717 40.0857 39.5668V45.4034C40.0857 45.8984 40.4875 46.3002 40.9825 46.3002H46.8191C47.3142 46.3002 47.716 45.8984 47.716 45.4034V39.5668C47.716 39.0717 47.3142 38.6699 46.8191 38.6699ZM45.9223 44.5065H41.8794V40.4636H45.9223V44.5065Z" fill="black"/>
<path d="M53.9221 8.00823H47.9988C47.991 8.00823 47.9844 8.01003 47.9767 8.01062V6.81604C47.9767 4.86214 46.3875 3.27295 44.4336 3.27295C42.4797 3.27295 40.8905 4.86274 40.8905 6.81604V8.00823H34.2162V6.81604C34.2162 4.86214 32.6271 3.27295 30.6732 3.27295C28.7192 3.27295 27.1301 4.86274 27.1301 6.81604V8.00823H20.4552V6.81604C20.4552 4.86214 18.866 3.27295 16.9121 3.27295C14.9582 3.27295 13.369 4.86274 13.369 6.81604V8.00883C13.366 8.00883 13.3631 8.00823 13.3601 8.00823H7.43797C6.94232 8.00823 6.54114 8.40942 6.54114 8.90507V55.3886C6.54114 55.8836 6.94232 56.2854 7.43797 56.2854H53.9221C54.4171 56.2854 54.8189 55.8836 54.8189 55.3886V8.90507C54.8189 8.40942 54.4171 8.00823 53.9221 8.00823ZM42.6842 6.81604C42.6842 5.85105 43.4686 5.06662 44.4336 5.06662C45.3986 5.06662 46.183 5.85105 46.183 6.81604V11.7648C46.183 12.7292 45.3986 13.5142 44.4336 13.5142C43.4686 13.5142 42.6842 12.7298 42.6842 11.7648V6.81604ZM30.6732 5.06662C31.6375 5.06662 32.4226 5.85105 32.4226 6.81604V11.7648C32.4226 12.7292 31.6381 13.5142 30.6732 13.5142C29.7082 13.5142 28.9237 12.7298 28.9237 11.7648V8.98877C28.9261 8.96067 28.9321 8.93377 28.9321 8.90447C28.9321 8.87517 28.9261 8.84827 28.9237 8.82017V6.81604C28.9237 5.85105 29.7082 5.06662 30.6732 5.06662ZM15.1627 6.81604C15.1627 5.85105 15.9471 5.06662 16.9121 5.06662C17.8765 5.06662 18.6616 5.85105 18.6616 6.81604V11.7648C18.6616 12.7292 17.8771 13.5142 16.9121 13.5142C15.9471 13.5142 15.1627 12.7298 15.1627 11.7648V6.81604ZM53.0252 54.4917H8.33481V9.8019H13.3601C13.3631 9.8019 13.366 9.8013 13.369 9.8013V11.7654C13.369 13.7193 14.9588 15.3085 16.9121 15.3085C18.8654 15.3085 20.4552 13.7193 20.4552 11.7654V9.8025H27.1301V11.7654C27.1301 13.7193 28.7198 15.3085 30.6732 15.3085C32.6265 15.3085 34.2162 13.7193 34.2162 11.7654V9.8025H40.8905V11.7654C40.8905 13.7193 42.4797 15.3085 44.4336 15.3085C46.3875 15.3085 47.9767 13.7193 47.9767 11.7654V9.79951C47.9844 9.79951 47.991 9.8019 47.9988 9.8019H53.0252V54.4917Z" fill="black"/>
</svg>
