<svg width="60" height="60" viewBox="0 0 60 60" fill="none" xmlns="http://www.w3.org/2000/svg">
<g clip-path="url(#clip0_627_109)">
<path d="M31.7497 35.1621C23.8447 35.1621 17.4132 42.8567 17.4132 52.3153C17.4132 52.959 17.8492 53.4814 18.3878 53.4814H45.111C45.6489 53.4814 46.0855 52.959 46.0855 52.3153C46.0855 42.8567 39.6541 35.1621 31.7497 35.1621ZM19.4007 51.1492C19.8996 43.5199 25.2481 37.4943 31.7497 37.4943C38.2513 37.4943 43.5997 43.5199 44.0981 51.1492H19.4007Z" fill="black"/>
<path d="M31.5157 33.6219C36.1566 33.6219 39.932 29.1045 39.932 23.5516C39.932 17.9986 36.1559 13.4812 31.5157 13.4812C26.8748 13.4812 23.0994 17.9986 23.0994 23.5516C23.0994 29.1045 26.8748 33.6219 31.5157 33.6219ZM31.5157 15.8134C35.0813 15.8134 37.9829 19.2844 37.9829 23.5516C37.9829 27.8179 35.0813 31.2897 31.5157 31.2897C27.9494 31.2897 25.0485 27.8187 25.0485 23.5516C25.0485 19.2844 27.9494 15.8134 31.5157 15.8134Z" fill="black"/>
<path d="M12.6963 41.5963C14.2952 41.5963 15.8655 42.1063 17.2377 43.0718C17.7016 43.3999 18.2994 43.2125 18.5716 42.6583C18.8445 42.1032 18.6898 41.388 18.2253 41.0615C16.5542 39.8853 14.6421 39.2642 12.6963 39.2642C6.6819 39.2642 1.78894 45.1187 1.78894 52.315C1.78894 52.9587 2.2249 53.4811 2.7635 53.4811H15.1158C15.6544 53.4811 16.0903 52.9587 16.0903 52.315C16.0903 51.6714 15.6544 51.1489 15.1158 51.1489H3.79069C4.27798 45.7849 8.08592 41.5963 12.6963 41.5963Z" fill="black"/>
<path d="M12.5235 37.4022C16.1106 37.4022 19.0297 33.9101 19.0297 29.6173C19.0297 25.3246 16.1112 21.8325 12.5235 21.8325C8.93583 21.8325 6.01733 25.3246 6.01733 29.6173C6.01733 33.9093 8.93583 37.4022 12.5235 37.4022ZM12.5235 24.1647C15.0359 24.1647 17.0806 26.6104 17.0806 29.6173C17.0806 32.6235 15.0366 35.07 12.5235 35.07C10.0104 35.07 7.96646 32.6243 7.96646 29.6173C7.96646 26.6104 10.0104 24.1647 12.5235 24.1647Z" fill="black"/>
<path d="M50.8816 39.2642C48.9364 39.2642 47.0243 39.8861 45.3526 41.0615C44.8881 41.388 44.7334 42.1024 45.0063 42.6575C45.2792 43.2141 45.8782 43.3983 46.3402 43.0718C47.713 42.1063 49.2833 41.5963 50.8816 41.5963C55.492 41.5963 59.2999 45.7849 59.7872 51.1489H48.4641C47.9261 51.1489 47.4895 51.6714 47.4895 52.315C47.4895 52.9587 47.9261 53.4811 48.4641 53.4811H60.8144C61.3524 53.4811 61.789 52.9587 61.789 52.315C61.789 45.1187 56.896 39.2642 50.8816 39.2642Z" fill="black"/>
<path d="M51.0551 37.4022C54.6421 37.4022 57.5612 33.9101 57.5612 29.6173C57.5612 25.3246 54.6427 21.8325 51.0551 21.8325C47.4674 21.8325 44.5482 25.3246 44.5482 29.6173C44.5489 33.9093 47.4674 37.4022 51.0551 37.4022ZM51.0551 24.1647C53.5675 24.1647 55.6121 26.6104 55.6121 29.6173C55.6121 32.6235 53.5681 35.07 51.0551 35.07C48.542 35.07 46.4973 32.6243 46.4973 29.6173C46.498 26.6104 48.542 24.1647 51.0551 24.1647Z" fill="black"/>
</g>
<defs>
<clipPath id="clip0_627_109">
<rect width="60" height="60" fill="white"/>
</clipPath>
</defs>
</svg>
