<svg width="100" height="100" viewBox="0 0 100 100" fill="none" xmlns="http://www.w3.org/2000/svg">
<path d="M57.596 54.6272C56.6973 54.4487 55.8115 54.3031 55.2948 54.2362C53.5222 53.9848 51.7127 53.8462 49.8713 53.8462C48.2893 53.8462 46.7332 53.9539 45.201 54.1405C44.3621 54.2392 43.612 54.3679 43.1282 54.4517C25.1601 57.6507 11.4713 73.3784 11.4713 92.2532C11.4713 93.0791 12.1406 93.7494 12.9676 93.7494H86.783C87.61 93.7494 88.2793 93.0791 88.2793 92.2532C88.2793 73.7215 75.0843 58.2123 57.596 54.6272ZM54.795 57.1868V64.8218H45.8174V57.0791C47.1491 56.9265 48.4997 56.8387 49.8713 56.8387C51.5431 56.8397 53.185 56.9624 54.795 57.1868ZM51.7496 67.8153L55.0593 90.7579H44.5765L47.8863 67.8153H51.7496ZM42.8249 57.5459V66.318C42.8249 67.1439 43.4943 67.8143 44.3212 67.8143H44.8628L41.5531 90.7569H14.4948C15.183 74.311 27.1391 60.728 42.8249 57.5459ZM58.0838 90.7579L54.7741 67.8153H56.2913C57.1182 67.8153 57.7875 67.1449 57.7875 66.319V57.7425C73.0464 61.2417 84.5805 74.6173 85.2559 90.7579H58.0838Z" fill="black"/>
<path d="M49.2269 49.5861C61.3885 49.5861 71.2838 39.6948 71.2838 27.5372C71.2838 15.3786 61.3895 5.4873 49.2269 5.4873C37.0683 5.4873 27.1771 15.3786 27.1771 27.5372C27.1771 39.6948 37.0683 49.5861 49.2269 49.5861ZM49.2269 8.47883C59.7387 8.47883 68.2913 17.0275 68.2913 27.5362C68.2913 38.0439 59.7387 46.5925 49.2269 46.5925C38.7182 46.5925 30.1696 38.0439 30.1696 27.5362C30.1696 17.0285 38.7182 8.47883 49.2269 8.47883Z" fill="black"/>
<path d="M44.4708 29.9101C46.1935 29.9101 47.6 28.5944 47.7775 26.9176H50.8409C51.0184 28.5944 52.4239 29.9101 54.1476 29.9101H61.4294C63.2718 29.9101 64.7711 28.4109 64.7711 26.5675V23.2757C64.7711 21.4333 63.2718 19.9341 61.4294 19.9341H54.1476C52.3052 19.9341 50.806 21.4333 50.806 23.2757V23.9241H47.8134V23.2757C47.8134 21.4333 46.3142 19.9341 44.4718 19.9341H37.19C35.3476 19.9341 33.8484 21.4333 33.8484 23.2757V26.5675C33.8484 28.4109 35.3476 29.9101 37.19 29.9101H44.4708ZM53.7975 23.2757C53.7975 23.0842 53.9541 22.9266 54.1466 22.9266H61.4284C61.6209 22.9266 61.7775 23.0832 61.7775 23.2757V26.5675C61.7775 26.76 61.6209 26.9176 61.4284 26.9176H54.1466C53.9541 26.9176 53.7975 26.761 53.7975 26.5675V23.2757ZM36.8399 26.5675V23.2757C36.8399 23.0842 36.9965 22.9266 37.189 22.9266H44.4708C44.6633 22.9266 44.8199 23.0832 44.8199 23.2757V26.5675C44.8199 26.76 44.6633 26.9176 44.4708 26.9176H37.189C36.9965 26.9176 36.8399 26.761 36.8399 26.5675Z" fill="black"/>
</svg>
