<svg width="50" height="50" viewBox="0 0 50 50" fill="none" xmlns="http://www.w3.org/2000/svg">
<path d="M28.798 27.3139C28.3486 27.2246 27.9057 27.1518 27.6474 27.1184C26.7611 26.9927 25.8564 26.9233 24.9357 26.9233C24.1446 26.9233 23.3666 26.9772 22.6005 27.0705C22.181 27.1198 21.806 27.1842 21.5641 27.2261C12.58 28.8256 5.73566 36.6894 5.73566 46.1268C5.73566 46.5398 6.07032 46.875 6.48379 46.875H43.3915C43.805 46.875 44.1396 46.5398 44.1396 46.1268C44.1396 36.861 37.5421 29.1064 28.798 27.3139ZM27.3975 28.5937V32.4111H22.9087V28.5398C23.5746 28.4635 24.2499 28.4196 24.9357 28.4196C25.7716 28.4201 26.5925 28.4814 27.3975 28.5937ZM25.8748 33.9079L27.5297 45.3792H22.2883L23.9431 33.9079H25.8748ZM21.4125 28.7732V33.1593C21.4125 33.5722 21.7471 33.9074 22.1606 33.9074H22.4314L20.7766 45.3787H7.24738C7.59152 37.1558 13.5696 30.3642 21.4125 28.7732ZM29.0419 45.3792L27.387 33.9079H28.1456C28.5591 33.9079 28.8938 33.5727 28.8938 33.1597V28.8715C36.5232 30.6211 42.2903 37.3089 42.6279 45.3792H29.0419Z" fill="black"/>
<path d="M24.6135 24.793C30.6943 24.793 35.6419 19.8474 35.6419 13.7686C35.6419 7.68929 30.6948 2.74365 24.6135 2.74365C18.5342 2.74365 13.5885 7.68929 13.5885 13.7686C13.5885 19.8474 18.5342 24.793 24.6135 24.793ZM24.6135 4.23941C29.8693 4.23941 34.1456 8.51373 34.1456 13.7681C34.1456 19.022 29.8693 23.2963 24.6135 23.2963C19.3591 23.2963 15.0848 19.022 15.0848 13.7681C15.0848 8.51423 19.3591 4.23941 24.6135 4.23941Z" fill="black"/>
<path d="M22.2354 14.9553C23.0968 14.9553 23.8 14.2975 23.8888 13.4591H25.4205C25.5092 14.2975 26.212 14.9553 27.0738 14.9553H30.7147C31.6359 14.9553 32.3855 14.2057 32.3855 13.284V11.6381C32.3855 10.7169 31.6359 9.96729 30.7147 9.96729H27.0738C26.1526 9.96729 25.403 10.7169 25.403 11.6381V11.9623H23.9067V11.6381C23.9067 10.7169 23.1571 9.96729 22.2359 9.96729H18.595C17.6738 9.96729 16.9242 10.7169 16.9242 11.6381V13.284C16.9242 14.2057 17.6738 14.9553 18.595 14.9553H22.2354ZM26.8988 11.6381C26.8988 11.5423 26.9771 11.4635 27.0733 11.4635H30.7142C30.8105 11.4635 30.8888 11.5418 30.8888 11.6381V13.284C30.8888 13.3803 30.8105 13.4591 30.7142 13.4591H27.0733C26.9771 13.4591 26.8988 13.3808 26.8988 13.284V11.6381ZM18.42 13.284V11.6381C18.42 11.5423 18.4983 11.4635 18.5945 11.4635H22.2354C22.3317 11.4635 22.41 11.5418 22.41 11.6381V13.284C22.41 13.3803 22.3317 13.4591 22.2354 13.4591H18.5945C18.4983 13.4591 18.42 13.3808 18.42 13.284Z" fill="black"/>
</svg>
