<svg width="50" height="50" viewBox="0 0 50 50" fill="none" xmlns="http://www.w3.org/2000/svg">
<g clip-path="url(#clip0_12_91)">
<path d="M27.3494 23.3984L24.2132 22.7023C23.0208 22.4306 21.6474 22.0716 21.6474 20.9467C21.6474 19.8196 22.6106 19.0323 24.3496 19.0323C27.8538 19.0323 27.5339 21.4404 29.2733 21.4404C30.1889 21.4404 30.9899 20.902 30.9899 19.9768C30.9899 17.8171 27.5334 16.1963 24.601 16.1963C21.4177 16.1963 18.0281 17.5479 18.0281 21.1479C18.0281 22.8818 18.6471 24.7262 22.0596 25.5819L26.2964 26.6395C27.5785 26.9558 27.8994 27.6768 27.8994 28.3277C27.8994 29.4096 26.8241 30.4667 24.8773 30.4667C21.074 30.4667 21.6018 27.5399 19.5637 27.5399C18.6476 27.5399 17.983 28.1706 17.983 29.0709C17.983 30.8261 20.1138 33.1678 24.8773 33.1678C29.4097 33.1678 31.6551 30.9833 31.6551 28.058C31.6551 26.169 30.7841 24.1634 27.3494 23.3984Z" fill="white"/>
<path d="M25 0C11.193 0 0 11.193 0 25C0 38.807 11.193 50 25 50C38.807 50 50 38.807 50 25C50 11.193 38.807 0 25 0ZM36.6883 36.8612C35.1892 38.3614 33.1968 39.1857 31.0771 39.1857C29.7042 39.1857 28.3597 38.8288 27.1724 38.157C26.4018 38.2939 25.6119 38.3659 24.8241 38.3659C23.0142 38.3659 21.258 38.011 19.6053 37.3104C18.0078 36.6366 16.5746 35.6693 15.3426 34.4379C14.1117 33.2064 13.1449 31.7737 12.4706 30.1762C11.7705 28.523 11.4161 26.7673 11.4161 24.9569C11.4161 24.1817 11.4855 23.4056 11.6179 22.6461C10.9664 21.474 10.6191 20.1472 10.6191 18.7977C10.6191 16.6775 11.445 14.6841 12.9441 13.1849C14.4432 11.6853 16.4367 10.8599 18.5568 10.8599C19.8557 10.8599 21.1384 11.1839 22.2791 11.7902C22.2811 11.7897 22.2836 11.7897 22.2851 11.7892C23.1166 11.6295 23.9708 11.5494 24.8241 11.5494C26.634 11.5494 28.3902 11.9038 30.0424 12.6029C31.6383 13.2782 33.0731 14.2445 34.3035 15.4759C35.5355 16.7074 36.5018 18.1411 37.1776 19.7381C37.8777 21.3908 38.2321 23.147 38.2321 24.9569C38.2321 25.7731 38.155 26.5899 38.0085 27.3874C38.6645 28.564 39.0133 29.8954 39.0133 31.249C39.0133 33.3692 38.188 35.3631 36.6883 36.8612Z" fill="white"/>
</g>
<defs>
<clipPath id="clip0_12_91">
<rect width="50" height="50" fill="white"/>
</clipPath>
</defs>
</svg>
