<svg width="90" height="90" viewBox="0 0 90 90" fill="none" xmlns="http://www.w3.org/2000/svg">
<path d="M26.3934 18.6774C31.3772 15.1836 37.2761 13.2086 43.3872 12.9878C49.4983 12.7669 55.5638 14.3096 60.8611 17.4318C66.1584 20.5541 70.4641 25.1244 73.265 30.598C76.0659 36.0717 77.244 42.2179 76.6589 48.3044C76.0738 54.3908 73.7501 60.1608 69.9648 64.9268C66.1795 69.6927 61.0922 73.2537 55.309 75.1854C49.5259 77.1171 43.2908 77.3381 37.3467 75.8219C31.4026 74.3058 26.0001 71.1165 21.7831 66.634L24.7967 63.7995C28.4639 67.6976 33.162 70.4711 38.3312 71.7896C43.5004 73.1081 48.9227 72.916 53.9519 71.2361C58.9811 69.5562 63.4052 66.4595 66.697 62.3148C69.9888 58.1702 72.0095 53.1524 72.5184 47.8595C73.0272 42.5665 72.0027 37.2216 69.5669 32.4615C67.1312 27.7014 63.3868 23.727 58.7802 21.0117C54.1735 18.2965 48.8986 16.955 43.5842 17.147C38.2698 17.3391 33.14 19.0566 28.8059 22.0949L26.3934 18.6774Z" fill="#EE5A02"/>
<path d="M78.604 43.9609C78.604 50.4814 76.67 56.8555 73.0465 62.2772C69.4229 67.6988 64.2727 71.9244 58.247 74.4197C52.2214 76.915 45.5909 77.5679 39.1941 76.2958C32.7973 75.0237 26.9214 71.8838 22.3096 67.2731C17.6977 62.6624 14.557 56.7879 13.2846 50.3927C12.0122 43.9974 12.6652 37.3686 15.1611 31.3444C17.6571 25.3202 21.8837 20.1712 27.3067 16.5486C32.7297 12.926 39.1053 10.9924 45.6275 10.9924V18.8955C40.6688 18.8955 35.8215 20.3656 31.6985 23.1198C27.5755 25.874 24.362 29.7887 22.4644 34.3688C20.5668 38.9489 20.0703 43.9887 21.0377 48.8509C22.0051 53.7131 24.3929 58.1793 27.8992 61.6848C31.4056 65.1902 35.8729 67.5775 40.7363 68.5446C45.5997 69.5118 50.6407 69.0154 55.2219 67.1182C59.8031 65.2211 63.7188 62.0084 66.4737 57.8864C69.2286 53.7645 70.699 48.9183 70.699 43.9609H78.604Z" fill="#665436"/>
<mask id="mask0_12_2" style="mask-type:luminance" maskUnits="userSpaceOnUse" x="35" y="23" width="21" height="37">
<path d="M55.8393 23H35V59.3621H55.8393V23Z" fill="white"/>
</mask>
<g mask="url(#mask0_12_2)">
<path fill-rule="evenodd" clip-rule="evenodd" d="M50.1182 31.3609L50.116 31.3488C50.1141 31.3379 50.1109 31.3202 50.1068 31.2962C50.0986 31.2482 50.0866 31.1751 50.0724 31.0806C50.044 30.8912 50.0072 30.6173 49.975 30.2876C49.9099 29.6216 49.8666 28.7575 49.9385 27.9125C50.0121 27.0476 50.1975 26.3179 50.5061 25.831C50.7734 25.4092 51.152 25.1269 51.8373 25.1269C52.2712 25.1269 52.5692 25.2365 52.7875 25.3847C53.0115 25.5367 53.2076 25.7679 53.3765 26.0949C53.7254 26.7705 53.8926 27.7249 53.9628 28.7465C53.9574 29.7805 53.8287 30.8061 53.5818 31.7884C52.8849 33.8693 52.8341 36.1954 53.4376 38.3186C53.449 38.3587 53.4626 38.398 53.4783 38.4364C53.5905 38.7102 53.6608 39.0154 53.6811 39.3338C53.6844 39.3844 53.691 39.4347 53.7009 39.4842C54.0283 41.1157 53.9318 42.8362 53.4296 44.3877C52.9274 45.9392 52.0545 47.2157 50.9669 48.0543C50.7412 48.2284 50.5938 48.4948 50.5602 48.7895C50.5266 49.0842 50.6098 49.3805 50.7898 49.6071C51.1146 50.0159 51.2111 50.3718 51.2219 50.667C51.2334 50.9819 51.1493 51.3105 50.9957 51.6384C50.8422 51.9659 50.6381 52.2522 50.4641 52.462C50.3788 52.5648 50.305 52.6442 50.255 52.6955C50.2301 52.7211 50.2114 52.7394 50.2006 52.7498L50.1915 52.7584C50.1914 52.7585 50.1916 52.7583 50.1915 52.7584C50.1912 52.7588 50.1907 52.7592 50.1903 52.7595C49.8038 53.1139 49.7309 53.7191 50.014 54.1648C50.0164 54.1703 50.0201 54.1794 50.0241 54.192C50.037 54.2325 50.055 54.3133 50.0351 54.4344C49.999 54.6535 49.7768 55.3252 48.3449 56.2263C47.1348 56.9878 45.4793 56.9407 43.6971 56.428C41.9484 55.9249 40.2907 55.0346 39.2482 54.4223C38.6263 54.057 38.2932 53.2245 38.1783 52.1705C38.1245 51.6776 38.1279 51.2102 38.1457 50.8626C38.1546 50.6904 38.1668 50.5514 38.1765 50.4582C38.1813 50.4117 38.1854 50.3769 38.1881 50.3553L38.191 50.3331C38.191 50.3329 38.191 50.3333 38.191 50.3331C38.191 50.3329 38.1912 50.3313 38.1912 50.3311C38.1911 50.3312 38.1912 50.331 38.1912 50.3311C38.2393 49.9931 38.1327 49.6499 37.9041 49.4101C37.8488 49.3521 37.754 49.2055 37.6624 48.9076C37.574 48.62 37.5091 48.2588 37.4693 47.8474C37.4575 47.7263 37.4482 47.6034 37.441 47.4798C37.8227 47.4981 38.197 47.2813 38.38 46.894C38.6285 46.3681 38.4299 45.7271 37.9365 45.4623C37.7729 45.3745 37.6144 45.2551 37.4677 45.105C37.4035 44.8041 37.2187 44.547 36.9651 44.4018C36.9367 44.315 36.9215 44.2164 36.9237 44.1139C36.9245 44.0786 36.9236 44.0432 36.921 44.0079C36.8885 43.5578 37.166 43.0583 37.7231 42.5575C37.9779 42.3284 38.2426 42.1447 38.4468 42.0173C38.5476 41.9545 38.6306 41.9073 38.686 41.877C38.7136 41.8619 38.7341 41.8512 38.7464 41.8449L38.7576 41.8391C38.7573 41.8392 38.7566 41.8396 38.3391 40.8708C37.9217 39.9019 37.9214 39.9021 37.9211 39.9022L37.919 39.9032L37.9154 39.905L37.9054 39.91C37.9025 39.9115 37.8994 39.9131 37.8959 39.9148C37.8897 39.9179 37.8826 39.9216 37.8745 39.9258C37.8494 39.9387 37.8151 39.9568 37.7731 39.9797C37.6892 40.0256 37.5734 40.0916 37.4367 40.1768C37.3376 40.2386 37.2258 40.3115 37.1059 40.3953C37.0622 40.1698 37.0402 39.9392 37.0402 39.7084C37.0402 39.1283 37.1793 38.5499 37.4529 38.0485C37.4439 38.0688 37.435 38.0893 37.4264 38.1098L38.3391 38.546L37.4858 37.9897C37.4746 38.0092 37.4637 38.0288 37.4529 38.0485C37.9411 36.9489 38.9359 36.2893 39.9109 35.8802C40.927 35.4539 42.1045 35.2223 43.184 35.0945C44.2727 34.9657 45.3122 34.937 46.0753 34.9399C46.4582 34.9414 46.7747 34.9508 46.997 34.9599C47.0748 34.9631 47.1412 34.9663 47.1949 34.9691C47.1598 34.9805 47.1237 34.9904 47.0865 34.9987L47.2906 36.0423L47.2251 37.1062L47.2225 37.106L47.2092 37.1051C47.1967 37.1043 47.1772 37.1032 47.1512 37.1017C47.0992 37.0988 47.0209 37.0947 46.9198 37.0906C46.7175 37.0822 46.4246 37.0735 46.0682 37.0721C45.3527 37.0694 44.3941 37.0967 43.4048 37.2137C42.4063 37.3319 41.4258 37.5361 40.6437 37.8643C39.8384 38.2021 39.4132 38.5985 39.2519 38.9821C39.2345 39.0235 39.2146 39.0636 39.1925 39.1023C39.0995 39.2642 39.0407 39.4766 39.0407 39.7084C39.0407 39.9402 39.0995 40.1525 39.1924 40.3144C39.3416 40.5743 39.3793 40.8899 39.296 41.1814C39.2128 41.4727 39.0171 41.7119 38.7576 41.8391C38.7574 41.8392 38.7568 41.8395 38.7566 41.8396L38.3391 40.8708L37.4859 41.4271C37.3035 41.1095 37.1765 40.7589 37.1059 40.3953C36.8981 40.5406 36.6658 40.7185 36.4332 40.9276C35.755 41.5374 34.8382 42.6289 34.923 44.1191C34.9214 44.4654 34.9764 44.8118 35.0875 45.1382C35.1742 45.3928 35.295 45.6348 35.4487 45.8529C35.4099 46.5224 35.4059 47.3089 35.4793 48.0664C35.5282 48.5716 35.6143 49.0933 35.7612 49.5714C35.855 49.8766 35.9834 50.1963 36.1644 50.4897C36.1585 50.5674 36.1529 50.6531 36.1482 50.7459C36.1261 51.175 36.1205 51.7695 36.1911 52.4166C36.3248 53.6427 36.7733 55.4032 38.2826 56.2897C39.3714 56.9292 41.1948 57.9167 43.1758 58.4865C45.1234 59.0468 47.4463 59.2679 49.3621 58.0623C51.0561 56.9963 51.8285 55.8797 52.0056 54.8023C52.0663 54.4333 52.0498 54.1047 51.9992 53.8301C52.2414 53.5328 52.5428 53.1091 52.7855 52.591C53.0404 52.0471 53.2493 51.3586 53.2209 50.5838C53.2032 50.1015 53.0944 49.6148 52.8777 49.1382C53.9694 48.0669 54.8085 46.6659 55.3208 45.083C55.9359 43.1829 56.0569 41.095 55.6715 39.1102C55.6316 38.6052 55.5193 38.1093 55.3369 37.6459C54.8699 35.9599 54.9206 34.11 55.4775 32.4711C55.4868 32.4436 55.4951 32.4158 55.5023 32.3875C55.8055 31.1977 55.9607 29.9586 55.9635 28.7129C55.9636 28.687 55.9627 28.6611 55.961 28.6353C55.8876 27.5256 55.6994 26.1709 55.1291 25.0667C54.8362 24.4995 54.4285 23.9707 53.8622 23.5862C53.2901 23.1979 52.6113 22.9946 51.8373 22.9946C50.4624 22.9946 49.4734 23.6512 48.8483 24.6376C48.2643 25.559 48.0323 26.707 47.9461 27.7198C47.8582 28.7525 47.9126 29.7662 47.9852 30.5085C48.0218 30.8829 48.0637 31.1958 48.0969 31.4172C48.1136 31.528 48.128 31.6163 48.1386 31.6783C48.1436 31.7075 48.1478 31.7309 48.1509 31.7481L48.1517 31.755C48.1543 31.7757 48.1582 31.8094 48.1627 31.8543C48.1717 31.9443 48.1827 32.0779 48.1894 32.2415C48.2031 32.5736 48.198 33.0046 48.1325 33.4351C48.0016 34.2959 47.7058 34.8024 47.1949 34.9691C47.218 34.9703 47.2387 34.9714 47.2569 34.9724C47.2721 34.9733 47.2855 34.9741 47.2973 34.9748C47.3093 34.9755 47.3195 34.9761 47.3279 34.9767L47.3475 34.9779L47.3532 34.9783L47.355 34.9784C47.3552 34.9785 47.356 34.9785 47.2906 36.0423C47.2251 37.1062 47.225 37.1062 47.2251 37.1062C47.3153 37.1124 47.4062 37.1057 47.4946 37.086C49.3322 36.6779 49.9276 34.9577 50.1073 33.7764C50.2017 33.1564 50.2055 32.5703 50.1881 32.1479C50.1793 31.9343 50.1648 31.7563 50.1521 31.6291C50.1457 31.5654 50.1398 31.514 50.1352 31.4769C50.1329 31.4583 50.131 31.4432 50.1294 31.4319L50.1275 31.4177L50.1268 31.4128L50.1264 31.4101C50.1264 31.4097 50.1263 31.4094 49.1377 31.5716L50.1264 31.4101C50.1241 31.394 50.1212 31.3768 50.1182 31.3609ZM50.0424 54.2073C50.0413 54.2057 50.0403 54.2042 50.0392 54.2026L50.0413 54.2057M35.4487 45.8529C35.4864 45.9065 35.5261 45.9586 35.5677 46.0091L35.4487 45.8529ZM34.923 44.1191C34.9239 44.1365 34.9251 44.154 34.9263 44.1715L35.9237 44.0897L34.9236 44.0655C34.9233 44.0833 34.923 44.1012 34.923 44.1191Z" fill="#665436"/>
<path fill-rule="evenodd" clip-rule="evenodd" d="M42.2345 41.4794L42.2497 41.4852L42.2977 41.5038C42.3404 41.5202 42.4037 41.5444 42.4851 41.5752C42.6481 41.6368 42.8834 41.7248 43.171 41.8294C43.7471 42.0389 44.5289 42.3137 45.3563 42.5768C46.1871 42.8409 47.0469 43.0878 47.7836 43.2463C48.1522 43.3256 48.4742 43.3793 48.7371 43.404C48.9716 43.426 49.1126 43.42 49.1807 43.4108C50.1652 43.0877 51.2086 43.1821 52.1376 43.6706C52.17 43.6876 52.2014 43.7064 52.2318 43.727C52.9589 44.2198 53.3234 44.9307 53.4207 45.679C53.5115 46.3769 53.3663 47.0585 53.1895 47.5952C53.0086 48.1442 52.7647 48.6307 52.5735 48.9713C52.4765 49.1441 52.3896 49.2855 52.3257 49.3855C52.2936 49.4357 52.2672 49.4758 52.2478 49.5047C52.2381 49.5191 52.2301 49.5308 52.2242 49.5395L52.2167 49.5503L52.214 49.5541L52.2126 49.5562C52.2124 49.5564 52.2122 49.5567 51.4109 48.9186C52.0558 49.7335 52.0551 49.7342 52.0543 49.7349L52.0528 49.7363L52.0494 49.7393L52.0417 49.746C52.0362 49.7508 52.0299 49.7562 52.0228 49.7622C52.0086 49.7741 51.9912 49.7884 51.9706 49.8047C51.9292 49.8373 51.8749 49.878 51.8071 49.9242C51.6714 50.0167 51.4822 50.1315 51.2364 50.249C50.7434 50.4847 50.0305 50.7278 49.0767 50.8289C47.1647 51.0315 44.3493 50.6579 40.4562 48.6241C39.9602 48.3649 39.7552 47.7262 39.9983 47.1975C40.2415 46.6688 40.8407 46.4503 41.3368 46.7095C44.9743 48.6099 47.4161 48.8622 48.8787 48.7071C49.6121 48.6294 50.1158 48.4478 50.4176 48.3035C50.5419 48.2441 50.6333 48.1903 50.6936 48.1515C50.737 48.0823 50.7937 47.9889 50.8566 47.8767C51.0073 47.6082 51.1808 47.2564 51.3019 46.8889C51.427 46.5091 51.4683 46.1959 51.4391 45.9717C51.4182 45.8108 51.3637 45.6801 51.1997 45.5559C50.725 45.3228 50.215 45.2925 49.7335 45.4608C49.7 45.4725 49.6661 45.4823 49.6317 45.4902C49.2901 45.5684 48.9082 45.5605 48.5617 45.528C48.199 45.494 47.7984 45.4247 47.3877 45.3364C46.5659 45.1596 45.6407 44.8923 44.7843 44.62C43.9244 44.3466 43.1166 44.0625 42.5249 43.8473C42.2287 43.7396 41.9856 43.6487 41.8161 43.5846C41.7313 43.5525 41.6648 43.5272 41.6193 43.5096L41.5669 43.4895L41.5482 43.4822C41.5481 43.4822 41.5477 43.482 41.8793 42.5151L41.5482 43.4822C41.0294 43.2801 40.762 42.6677 40.9516 42.1147C41.1413 41.5617 41.7157 41.2773 42.2345 41.4794ZM51.4109 48.9186L52.0558 49.7335C52.1141 49.6811 52.167 49.6213 52.2126 49.5562L51.4109 48.9186Z" fill="#665436"/>
<path fill-rule="evenodd" clip-rule="evenodd" d="M40.5292 52.297C40.7245 51.7462 41.3017 51.4684 41.8185 51.6765C45.2708 53.067 47.4623 53.2486 48.7318 53.1317C49.3653 53.0734 49.7737 52.9404 50.0014 52.8423C50.1158 52.793 50.1868 52.7515 50.2197 52.7306C50.2287 52.7249 50.2349 52.7207 50.2385 52.7183C50.6665 52.3722 51.2781 52.4482 51.6192 52.896C51.9674 53.3531 51.902 54.0245 51.4731 54.3957L50.8426 53.568C51.4731 54.3957 51.4714 54.3971 51.4714 54.3971L51.4696 54.3987L51.4658 54.4019L51.4577 54.4088C51.4519 54.4136 51.4455 54.4188 51.4385 54.4245C51.4245 54.4358 51.4079 54.4486 51.3888 54.4629C51.3505 54.4915 51.3019 54.5255 51.2424 54.5632C51.1232 54.6387 50.9611 54.7286 50.7514 54.819C50.3309 55.0003 49.7269 55.1803 48.904 55.256C47.2607 55.4074 44.7634 55.142 41.1113 53.6711C40.5945 53.463 40.3339 52.8477 40.5292 52.297Z" fill="#665436"/>
<path fill-rule="evenodd" clip-rule="evenodd" d="M49.2151 38.8364C49.4355 38.2965 50.0249 38.0492 50.5314 38.2841C52.1085 39.0154 52.8553 40.0496 53.1068 41.0696C53.2258 41.5524 53.2197 41.9789 53.1827 42.2887C53.164 42.4441 53.1373 42.5732 53.113 42.6699C53.1052 42.7009 53.0976 42.7288 53.0905 42.7533C52.8591 43.9194 52.1242 44.6112 51.529 44.9858C51.2232 45.1782 50.9336 45.3017 50.7211 45.3776C50.6136 45.416 50.5228 45.4433 50.4552 45.4618C50.4213 45.4711 50.3931 45.4782 50.3713 45.4835C50.3603 45.4861 50.351 45.4882 50.3434 45.4899L50.3332 45.4922L50.329 45.4931L50.3264 45.4936C50.3259 45.4937 50.3255 45.4938 50.1324 44.4478L50.3264 45.4936C49.7844 45.6073 49.2576 45.2314 49.1509 44.6536C49.0447 44.0787 49.3938 43.5208 49.9315 43.4034M51.1793 42.1229C51.1797 42.1215 51.1801 42.1197 51.1807 42.1175C51.1847 42.1017 51.1924 42.0673 51.1982 42.0188C51.2099 41.9206 51.2127 41.777 51.1719 41.6116C51.1037 41.3351 50.8559 40.7598 49.7333 40.2393C49.2267 40.0044 48.9947 39.3763 49.2151 38.8364" fill="#665436"/>
</g>
</svg>
