<svg width="61" height="61" viewBox="0 0 61 61" fill="none" xmlns="http://www.w3.org/2000/svg">
<path d="M48.8021 12.0198C43.9102 7.16613 37.4292 4.49658 30.5415 4.49658C30.5069 4.49658 30.4722 4.49658 30.4375 4.49658C16.1391 4.55278 4.55273 16.23 4.60774 30.5284C4.63464 37.4549 7.35741 43.9557 12.2738 48.8338C17.1663 53.6881 23.6467 56.3576 30.5344 56.357C30.569 56.357 30.6043 56.357 30.639 56.357C44.9368 56.3014 56.5238 44.6241 56.4682 30.3257C56.4418 23.3999 53.7191 16.8985 48.8021 12.0198ZM30.6324 54.5633C24.2016 54.5873 18.1145 52.1025 13.5377 47.5609C8.96093 43.0194 6.4265 36.9682 6.40139 30.5213C6.34997 17.2124 17.1352 6.34225 30.4441 6.29023C30.477 6.29023 30.5081 6.29023 30.5409 6.29023C36.952 6.29023 42.9853 8.77504 47.5388 13.2932C52.1156 17.8342 54.65 23.8853 54.6751 30.3329C54.7265 43.6418 43.9407 54.5113 30.6324 54.5633Z" fill="black"/>
<path d="M40.006 23.6937C40.2266 23.3056 40.1286 22.8148 39.7758 22.5409C39.4231 22.2671 38.9239 22.2946 38.6022 22.6049L31.0162 29.9523C30.8817 29.9403 30.7388 29.9403 30.6145 29.9344C28.2301 29.9439 26.2977 31.8912 26.3061 34.2756C26.3103 35.4307 26.7647 36.5147 27.585 37.3284C28.4005 38.1379 29.4809 38.5828 30.6282 38.5828C30.6342 38.5828 30.6408 38.5828 30.6474 38.5828C31.8025 38.5786 32.887 38.1242 33.7007 37.3045C34.5139 36.4842 34.9593 35.3966 34.9551 34.2421C34.9533 33.7967 34.8822 33.3579 34.7429 32.931L40.006 23.6937ZM32.9349 33.2233C33.0837 33.5558 33.1603 33.9007 33.1615 34.2487C33.1644 34.9249 32.9032 35.5611 32.4273 36.0412C31.9507 36.5213 31.317 36.7867 30.6402 36.7891C29.964 36.776 29.3278 36.5314 28.8477 36.0549C28.3676 35.579 28.1022 34.9446 28.0998 34.2684C28.0944 32.8736 29.2256 31.734 30.6198 31.728C30.6216 31.728 30.624 31.728 30.6258 31.728C30.7962 31.728 30.9702 31.746 31.143 31.7818C31.4324 31.8404 31.7337 31.7537 31.9477 31.5469L35.336 28.2657L32.9731 32.4126C32.832 32.6607 32.8177 32.9621 32.9349 33.2233Z" fill="black"/>
<path d="M30.6982 44.7803C30.6946 44.7803 30.691 44.7803 30.6868 44.7803C29.1305 44.7863 27.8696 46.0574 27.875 47.6136C27.8779 48.3676 28.1739 49.0755 28.7096 49.6064C29.2423 50.1349 29.9478 50.4249 30.6976 50.4249C30.7012 50.4249 30.7047 50.4249 30.7089 50.4249C32.2652 50.4189 33.5262 49.1478 33.5208 47.5915C33.5154 46.0388 32.2503 44.7803 30.6982 44.7803ZM30.7023 48.6312C30.7012 48.6312 30.7 48.6312 30.6982 48.6312C30.4243 48.6312 30.1672 48.5254 29.9735 48.3329C29.7786 48.1398 29.6704 47.8815 29.6692 47.6065C29.6674 47.0391 30.1266 46.5757 30.694 46.5733C30.6952 46.5733 30.6964 46.5733 30.6982 46.5733C31.2638 46.5733 31.7247 47.0325 31.7271 47.5981C31.7301 48.1661 31.2697 48.6289 30.7023 48.6312Z" fill="black"/>
<path d="M30.5481 10.9087C30.523 10.9087 30.4967 10.9087 30.4722 10.9087C25.2885 10.9284 20.423 12.966 16.7717 16.6454C13.121 20.3248 11.1211 25.2059 11.1408 30.3895C11.1618 35.5774 13.2017 40.4453 16.8859 44.0978C17.0545 44.264 17.2811 44.3579 17.5173 44.3579C17.5274 44.3579 17.537 44.3579 17.5472 44.3573C17.7941 44.3489 18.0267 44.2395 18.1899 44.0542L22.2531 39.4499C22.5807 39.0786 22.5455 38.5124 22.1742 38.1841C21.8029 37.8577 21.2361 37.893 20.9085 38.2637L17.491 42.1367C14.5637 38.9106 12.9524 34.7732 12.9351 30.3836C12.9171 25.6788 14.7317 21.2491 18.0458 17.9099C21.3599 14.5707 25.7752 12.7215 30.48 12.7035C30.5033 12.7035 30.526 12.7035 30.5487 12.7035C40.2285 12.7035 48.1235 20.5597 48.1606 30.2484C48.1773 34.653 46.5881 38.8167 43.6657 42.0704L40.2141 38.6451C39.862 38.2953 39.2946 38.2977 38.946 38.6499C38.5968 39.0014 38.5992 39.5694 38.9508 39.918L43.0547 43.9908C43.2227 44.1576 43.4499 44.2515 43.6866 44.2515C43.6878 44.2515 43.689 44.2515 43.6902 44.2515C43.9276 44.2503 44.1554 44.1552 44.3234 43.9866C47.9746 40.3072 49.9746 35.4261 49.9548 30.2419C49.9118 19.5643 41.2144 10.9087 30.5481 10.9087Z" fill="black"/>
</svg>
