<svg width="61" height="60" viewBox="0 0 61 60" fill="none" xmlns="http://www.w3.org/2000/svg">
<path d="M54.8428 19.7377L30.2911 3.36991C29.9898 3.16902 29.5976 3.16902 29.2962 3.36991L4.74448 19.7377C4.49516 19.9039 4.34509 20.1843 4.34509 20.4839C4.34509 20.7834 4.49457 21.0638 4.74448 21.2301L8.47352 23.7161V36.8176C8.47352 37.1232 8.62897 37.4078 8.88606 37.5728L29.4529 50.758C29.6005 50.8525 29.7685 50.8997 29.9372 50.8997C30.1135 50.8997 30.2905 50.8477 30.4424 50.7437L41.1727 43.4231V48.5279L37.1752 56.5229C37.0365 56.8009 37.0514 57.1315 37.2141 57.3958C37.3773 57.6595 37.6667 57.8209 37.977 57.8209H46.1615C46.4724 57.8209 46.7612 57.6595 46.9244 57.3958C47.087 57.1315 47.1026 56.8009 46.9633 56.5229L42.9658 48.5279V42.1992L49.768 37.5584C50.0125 37.3916 50.159 37.1142 50.159 36.8176V24.3522L54.8422 21.2301C55.0916 21.0638 55.2416 20.7834 55.2416 20.4839C55.2416 20.1843 55.0922 19.9039 54.8428 19.7377ZM39.4287 56.0272L42.0695 50.7455L44.7104 56.0272H39.4287ZM29.9216 48.9279L10.2672 36.3274V24.9119L29.2962 37.5985C29.4469 37.6989 29.6203 37.7491 29.7937 37.7491C29.9671 37.7491 30.1404 37.6989 30.2911 37.5985L41.1727 30.3437V41.2516L29.9216 48.9279ZM48.3659 36.3441L42.9664 40.0283V29.1479L48.3659 25.548V36.3441ZM48.9512 23.0022C48.8191 23.0512 48.7025 23.1296 48.608 23.2312L42.0695 27.5904L30.2911 19.7377C29.878 19.4627 29.3219 19.5745 29.0475 19.9864C28.7731 20.3984 28.8843 20.9556 29.2962 21.2301L40.4528 28.6678L29.7937 35.7743L6.85862 20.4839L29.7937 5.19407L52.7287 20.4839L48.9512 23.0022Z" fill="black"/>
</svg>
