<svg width="60" height="60" viewBox="0 0 60 60" fill="none" xmlns="http://www.w3.org/2000/svg">
<path d="M21.4636 14.747H52.5282C53.0238 14.747 53.425 14.3453 53.425 13.8502C53.425 13.3546 53.0238 12.9534 52.5282 12.9534H21.4636C20.968 12.9534 20.5668 13.3546 20.5668 13.8502C20.5668 14.3453 20.9686 14.747 21.4636 14.747Z" fill="#231F20"/>
<path d="M52.5282 29.1699H21.4636C20.968 29.1699 20.5668 29.5717 20.5668 30.0668C20.5668 30.5624 20.968 30.9636 21.4636 30.9636H52.5282C53.0238 30.9636 53.425 30.5624 53.425 30.0668C53.425 29.5717 53.0232 29.1699 52.5282 29.1699Z" fill="#231F20"/>
<path d="M52.5282 45.041H21.4636C20.968 45.041 20.5668 45.4428 20.5668 45.9378C20.5668 46.4335 20.968 46.8347 21.4636 46.8347H52.5282C53.0238 46.8347 53.425 46.4335 53.425 45.9378C53.425 45.4428 53.0232 45.041 52.5282 45.041Z" fill="#231F20"/>
<path d="M10.7752 9.44019C8.34295 9.44019 6.36453 11.418 6.36453 13.849C6.36453 16.2818 8.34355 18.2608 10.7752 18.2608C13.2068 18.2608 15.1858 16.2812 15.1858 13.849C15.1864 11.418 13.2074 9.44019 10.7752 9.44019ZM10.7752 16.4672C9.33186 16.4672 8.1582 15.2923 8.1582 13.849C8.1582 12.4069 9.33246 11.2339 10.7752 11.2339C12.2179 11.2339 13.3921 12.4069 13.3921 13.849C13.3927 15.2923 12.2185 16.4672 10.7752 16.4672Z" fill="#231F20"/>
<path d="M10.7752 25.6555C8.34295 25.6555 6.36453 27.6339 6.36453 30.0655C6.36453 32.4984 8.34355 34.4774 10.7752 34.4774C13.2068 34.4774 15.1858 32.4984 15.1858 30.0655C15.1864 27.6339 13.2074 25.6555 10.7752 25.6555ZM10.7752 32.6837C9.33186 32.6837 8.1582 31.5095 8.1582 30.0655C8.1582 28.6228 9.33246 27.4492 10.7752 27.4492C12.2179 27.4492 13.3921 28.6228 13.3921 30.0655C13.3927 31.5095 12.2185 32.6837 10.7752 32.6837Z" fill="#231F20"/>
<path d="M10.7752 41.5266C8.34295 41.5266 6.36453 43.5056 6.36453 45.9372C6.36453 48.3695 8.34355 50.3485 10.7752 50.3485C13.2068 50.3485 15.1858 48.3695 15.1858 45.9372C15.1864 43.5056 13.2074 41.5266 10.7752 41.5266ZM10.7752 48.5554C9.33186 48.5554 8.1582 47.3811 8.1582 45.9378C8.1582 44.4945 9.33246 43.3209 10.7752 43.3209C12.2179 43.3209 13.3921 44.4951 13.3921 45.9378C13.3927 47.3811 12.2185 48.5554 10.7752 48.5554Z" fill="#231F20"/>
</svg>
