<svg width="60" height="60" viewBox="0 0 60 60" fill="none" xmlns="http://www.w3.org/2000/svg">
<path d="M52.1407 14.9131C53.0286 10.4529 53.4232 4.69279 50.2574 2.58404C47.0922 0.472891 41.9276 3.05398 38.1525 5.59082C34.109 8.30823 29.8526 12.2639 28.0308 14.9974L26.633 17.0954C24.5607 17.0368 17.5845 16.9244 15.0572 17.9552C12.2992 19.0828 7.27392 25.0264 7.03237 27.4479C6.94508 28.3172 7.37915 28.7447 7.64401 28.9205C8.16119 29.2661 9.60868 29.391 11.434 29.391C13.6295 29.391 16.3654 29.2099 18.6924 29.0137L18.0808 29.9315C18.0778 29.9357 18.0742 29.9393 18.0712 29.9435C18.0682 29.9476 18.067 29.953 18.064 29.9572L14.2148 35.7352C11.6325 39.6101 11.6409 44.6713 14.1688 48.533L12.5132 51.0173C11.8591 51.999 11.6433 53.1846 11.9058 54.3571C12.1653 55.5146 12.8618 56.5202 13.8662 57.1887C14.6632 57.7202 15.5631 57.9749 16.4449 57.9749C17.8727 57.9749 19.255 57.3071 20.0843 56.0635L21.7363 53.584C22.443 53.7167 23.1533 53.7831 23.8588 53.7831C27.6817 53.7831 31.3569 51.8836 33.5398 48.6096L38.3223 41.4319C39.6317 45.5029 41.5222 50.8349 42.6612 51.5924C42.8178 51.6965 43.0767 51.8214 43.4211 51.8214C43.6615 51.8214 43.9431 51.7599 44.26 51.5889C46.401 50.4313 49.9501 43.5048 49.9273 40.5267C49.9082 37.7973 47.1143 31.3999 46.2629 29.5136L47.354 27.876C49.1764 25.1448 51.1895 19.6932 52.1407 14.9131ZM29.5232 15.9923C30.9874 13.7951 34.7655 10.0284 39.1528 7.07957C43.7781 3.97174 47.4617 2.87641 49.2625 4.07697C51.0615 5.27514 51.4693 9.09685 50.3811 14.5634C49.3486 19.7494 47.3265 24.6856 45.8617 26.8817L36.4019 41.0803L25.2034 33.6199C25.1992 33.6169 25.1963 33.6133 25.1915 33.6103C25.1873 33.6073 25.1825 33.6061 25.1777 33.6031L20.0616 30.1946L27.8072 18.568C27.8306 18.5381 27.8509 18.5064 27.8706 18.4735L29.5232 15.9923ZM8.82843 27.4861C9.11243 25.9621 13.3431 20.5943 15.7352 19.6161C17.456 18.9148 22.4065 18.8257 25.4533 18.8664L19.9677 27.1005C15.3526 27.5238 10.0995 27.7636 8.82843 27.4861ZM15.7071 36.7307L19.0679 31.6863L23.4504 34.6058L15.2683 46.8841C13.5398 43.7194 13.6695 39.7883 15.7071 36.7307ZM18.5926 55.0692C17.7998 56.2572 16.1257 56.54 14.8611 55.6964C14.2417 55.285 13.8142 54.6698 13.6558 53.9649C13.5015 53.2761 13.6259 52.5825 14.0056 52.0122L15.9911 49.0329C16.0043 49.0137 16.0181 48.9952 16.0294 48.9755L24.9427 35.6001L29.5286 38.6553L18.5926 55.0692ZM32.0487 47.6147C30.0081 50.6747 26.4261 52.3087 22.8394 51.9297L31.0215 39.6496L35.4082 42.5721L32.0487 47.6147ZM48.1343 40.5405C48.154 43.1227 44.8417 49.0771 43.5395 49.9429C42.7599 48.8093 40.9746 43.9078 39.5982 39.5175L45.0833 31.2845C46.2952 34.0797 48.1205 38.6822 48.1343 40.5405Z" fill="black"/>
<path d="M34.3798 25.8038C35.5744 26.6008 36.9274 26.9822 38.2667 26.9822C40.5405 26.9822 42.7754 25.8827 44.1308 23.8517L44.1314 23.8511C46.2778 20.6237 45.4001 16.2495 42.1751 14.1001C40.6116 13.0586 38.7349 12.6891 36.8958 13.058C35.0537 13.4269 33.4669 14.4905 32.4271 16.0534C31.385 17.6163 31.0143 19.4913 31.3832 21.3328C31.7515 23.1737 32.8164 24.7617 34.3798 25.8038ZM33.9201 17.0471C34.6943 15.8836 35.8758 15.0914 37.2473 14.8164C37.5941 14.747 37.9421 14.7129 38.287 14.7129C39.31 14.7129 40.3103 15.0131 41.1802 15.593C43.5832 17.1942 44.2366 20.4521 42.6379 22.8568C41.0332 25.2615 37.7747 25.912 35.3747 24.3121C34.2094 23.5354 33.416 22.3528 33.1416 20.9812C32.8666 19.6085 33.1428 18.2124 33.9201 17.0471Z" fill="black"/>
</svg>
