<svg width="60" height="60" viewBox="0 0 60 60" fill="none" xmlns="http://www.w3.org/2000/svg">
<path d="M42.7092 7.01647C42.5718 6.71047 42.2766 6.50587 41.9418 6.48607C41.5998 6.46087 41.2884 6.63367 41.1162 6.92107L37.4988 12.9433C37.2426 13.3693 37.3812 13.9225 37.8072 14.1781C38.2326 14.4343 38.7864 14.2969 39.0426 13.8703L40.8516 10.8583C40.197 16.8547 37.0968 22.8307 32.1144 27.5569C26.2116 33.1561 18.5844 36.2395 10.638 36.2395C10.1406 36.2395 9.73801 36.6427 9.73801 37.1395C9.73801 37.6363 10.1406 38.0395 10.638 38.0395C19.0476 38.0395 27.1146 34.7803 33.3534 28.8631C38.595 23.8915 41.8818 17.5903 42.6252 11.2333L43.968 14.2345C44.1174 14.5687 44.4462 14.7673 44.79 14.7673C44.913 14.7673 45.0378 14.7421 45.1566 14.6887C45.6108 14.4859 45.8142 13.9531 45.6108 13.4995L42.7092 7.01647Z" fill="black"/>
<path d="M10.8612 42.8594C10.3638 42.8594 9.96121 43.2626 9.96121 43.7594V52.6166C9.96121 53.1134 10.3638 53.5166 10.8612 53.5166C11.3586 53.5166 11.7612 53.1134 11.7612 52.6166V43.7594C11.7612 43.2626 11.3586 42.8594 10.8612 42.8594Z" fill="black"/>
<path d="M24.4224 39.105C23.925 39.105 23.5224 39.5082 23.5224 40.005V52.6164C23.5224 53.1132 23.925 53.5164 24.4224 53.5164C24.9198 53.5164 25.3224 53.1132 25.3224 52.6164V40.005C25.3224 39.5082 24.9198 39.105 24.4224 39.105Z" fill="black"/>
<path d="M37.6764 30.1526C37.1796 30.1526 36.7764 30.5558 36.7764 31.0526V52.616C36.7764 53.1128 37.1796 53.516 37.6764 53.516C38.1732 53.516 38.5764 53.1128 38.5764 52.616V31.0526C38.5764 30.5558 38.1732 30.1526 37.6764 30.1526Z" fill="black"/>
<path d="M49.3626 8.5896C48.8658 8.5896 48.4626 8.9922 48.4626 9.4896V52.6158C48.4626 53.1126 48.8658 53.5158 49.3626 53.5158C49.8594 53.5158 50.2626 53.1126 50.2626 52.6158V9.4896C50.2626 8.9922 49.86 8.5896 49.3626 8.5896Z" fill="black"/>
</svg>
