<svg width="60" height="61" viewBox="0 0 60 61" fill="none" xmlns="http://www.w3.org/2000/svg">
<path d="M31.0609 32.127C19.0691 32.127 9.31271 42.2486 9.31271 54.6889C9.31271 55.184 9.7139 55.5857 10.2095 55.5857H51.9123C52.4074 55.5857 52.8092 55.184 52.8092 54.6889C52.8092 42.248 43.0534 32.127 31.0609 32.127ZM11.1249 53.7921C11.5775 42.755 20.3468 33.9206 31.0609 33.9206C41.7751 33.9206 50.5444 42.755 50.9976 53.7921H11.1249Z" fill="black"/>
<path d="M30.6855 29.6627C37.6019 29.6627 43.2286 23.8392 43.2286 16.6807C43.2286 9.52217 37.6025 3.69873 30.6855 3.69873C23.7685 3.69873 18.1418 9.52277 18.1418 16.6807C18.1418 23.8386 23.7685 29.6627 30.6855 29.6627ZM30.6855 5.4924C36.613 5.4924 41.4349 10.5117 41.4349 16.6807C41.4349 22.8497 36.613 27.869 30.6855 27.869C24.7574 27.869 19.9354 22.8497 19.9354 16.6807C19.9354 10.5117 24.758 5.4924 30.6855 5.4924Z" fill="black"/>
</svg>
