<svg width="97" height="97" viewBox="0 0 97 97" fill="none" xmlns="http://www.w3.org/2000/svg">
<path d="M81.3759 49.3995C80.91 49.0995 80.3262 49.0571 79.8246 49.2886L59.8129 58.5006H46.986C46.0898 58.5006 45.3644 59.2299 45.3644 60.131V77.5223C45.3644 77.9941 45.5352 78.2789 45.8023 78.6756L59.6183 100.175C59.92 100.623 60.4237 100.893 60.9621 100.893H68.8669C69.4117 100.893 69.9209 100.618 70.2204 100.159C70.5209 99.7017 70.5717 99.1223 70.3555 98.6191L62.5675 80.3995L79.8235 88.3213C80.0387 88.4202 80.2679 88.4691 80.497 88.4691C80.803 88.4691 81.1078 88.3821 81.3738 88.2104C81.8376 87.9104 82.1186 87.3941 82.1186 86.8386V50.7723C82.1208 50.2169 81.8397 49.6995 81.3759 49.3995ZM48.6076 61.7626H59.4183C59.4183 61.9419 59.4183 62.1147 59.4183 62.306V75.893H48.6076V61.7626ZM61.8237 97.6321L49.4109 79.1539H58.5254C58.5416 79.206 58.5524 79.2593 58.5751 79.3115L66.4064 97.6321H61.8237ZM78.8776 84.3017L62.6616 76.8571V60.7767L78.8776 53.3115V84.3017Z" fill="black"/>
<path d="M89.7899 62.5903C90.1153 62.5903 90.4439 62.4925 90.7293 62.2881L97.8374 57.2001C98.5671 56.6783 98.7368 55.6599 98.2179 54.9262C97.7001 54.1936 96.686 54.0207 95.9563 54.5436L88.8483 59.6316C88.1186 60.1533 87.9478 61.1718 88.4678 61.9055C88.7845 62.3512 89.2829 62.5903 89.7899 62.5903Z" fill="black"/>
<path d="M98.8773 66.1104H90.2288C89.3326 66.1104 88.6072 66.8397 88.6072 67.7408C88.6072 68.6419 89.3326 69.3712 90.2288 69.3712H98.8773C99.7725 69.3712 100.499 68.6419 100.499 67.7408C100.499 66.8397 99.7725 66.1104 98.8773 66.1104Z" fill="black"/>
<path d="M97.8374 78.4278L90.7294 73.3398C90.0018 72.8191 88.9878 72.9887 88.4678 73.7224C87.9489 74.4561 88.1186 75.4746 88.8483 75.9963L95.9563 81.0843C96.2417 81.2887 96.5693 81.3865 96.8958 81.3865C97.4028 81.3865 97.9023 81.1485 98.2179 80.7017C98.7368 79.9691 98.5671 78.9507 97.8374 78.4278Z" fill="black"/>
<path d="M32.7279 46.0245C37.1203 46.0245 41.3386 46.993 45.265 48.9028C46.0715 49.2963 47.0412 48.9561 47.4304 48.1452C47.8207 47.3343 47.4834 46.3593 46.6769 45.968C42.3061 43.8419 37.6132 42.7637 32.7268 42.7637C14.9562 42.7637 0.499023 57.3821 0.499023 75.3495C0.499023 76.2506 1.22442 76.98 2.12063 76.98H36.1743C37.0705 76.98 37.7959 76.2506 37.7959 75.3495C37.7959 74.4485 37.0705 73.7191 36.1743 73.7191H3.78656C4.62547 58.3039 17.2859 46.0245 32.7279 46.0245Z" fill="black"/>
<path d="M33.3721 38.8615C43.7861 38.8615 52.2584 30.3452 52.2584 19.8768C52.2584 9.40937 43.7861 0.893066 33.3721 0.893066C22.9636 0.893066 14.4945 9.40828 14.4945 19.8768C14.4945 30.3452 22.9625 38.8615 33.3721 38.8615ZM33.3721 4.15394C41.998 4.15394 49.0152 11.2072 49.0152 19.8768C49.0152 28.5474 41.998 35.6007 33.3721 35.6007C24.7517 35.6007 17.7377 28.5463 17.7377 19.8768C17.7377 11.2072 24.7517 4.15394 33.3721 4.15394Z" fill="black"/>
</svg>
