<svg width="50" height="50" viewBox="0 0 50 50" fill="none" xmlns="http://www.w3.org/2000/svg">
<path d="M20.7727 20.5503C17.0873 20.5503 14.0888 23.5493 14.0888 27.2361C14.0888 27.6471 14.4218 27.9806 14.8332 27.9806H26.7106C27.1216 27.9806 27.4551 27.6471 27.4551 27.2361C27.4551 23.5498 24.4575 20.5503 20.7727 20.5503ZM15.6307 26.4917C15.9925 23.9776 18.1608 22.0391 20.7727 22.0391C23.3841 22.0391 25.5508 23.9776 25.9131 26.4917H15.6307Z" fill="black"/>
<path d="M20.6665 19.9802C22.9027 19.9802 24.7221 18.1613 24.7221 15.9261C24.7221 13.6928 22.9027 11.876 20.6665 11.876C18.4337 11.876 16.6174 13.6928 16.6174 15.9261C16.6174 18.1613 18.4337 19.9802 20.6665 19.9802ZM20.6665 13.3648C22.0819 13.3648 23.2333 14.5137 23.2333 15.9261C23.2333 17.3405 22.0819 18.4914 20.6665 18.4914C19.2546 18.4914 18.1062 17.3405 18.1062 15.9261C18.1062 14.5137 19.2546 13.3648 20.6665 13.3648Z" fill="black"/>
<path d="M45.0233 40.699L37.259 32.9397C37.1196 32.8002 36.93 32.7218 36.7325 32.7218C36.5355 32.7218 36.3454 32.8002 36.2055 32.9397L34.9315 34.2146L32.6397 31.9233C35.4357 28.9829 37.1568 25.0121 37.1568 20.6439C37.1568 11.6092 29.8064 4.25879 20.7717 4.25879C11.7375 4.25829 4.38708 11.6087 4.38708 20.6434C4.38708 29.6786 11.7375 37.0285 20.7722 37.0285C24.9042 37.0285 28.6814 35.4876 31.5667 32.9551L33.8799 35.2677L32.8129 36.3352C32.5226 36.626 32.5226 37.0975 32.8134 37.3878L40.5772 45.1471C40.7166 45.2866 40.9062 45.365 41.1037 45.365C41.3012 45.365 41.4903 45.2866 41.6303 45.1471L45.0238 41.7516C45.1633 41.6121 45.2417 41.4226 45.2417 41.225C45.2412 41.0275 45.1628 40.8384 45.0233 40.699ZM5.87592 20.6434C5.87592 12.4295 12.5583 5.74713 20.7722 5.74713C28.9861 5.74713 35.6685 12.4295 35.6685 20.6434C35.6685 28.8573 28.9861 35.5397 20.7722 35.5397C12.5583 35.5397 5.87592 28.8573 5.87592 20.6434ZM41.1027 43.568L34.3925 36.8608L36.7335 34.5183L43.4442 41.2255L41.1027 43.568Z" fill="black"/>
</svg>
