<svg width="80" height="80" viewBox="0 0 80 80" fill="none" xmlns="http://www.w3.org/2000/svg">
<path d="M33.2363 32.8794C27.3397 32.8794 22.5421 37.6778 22.5421 43.5768C22.5421 44.2342 23.0749 44.7678 23.7332 44.7678H42.7371C43.3945 44.7678 43.9281 44.2342 43.9281 43.5768C43.9281 37.6786 39.1321 32.8794 33.2363 32.8794ZM25.0092 42.3857C25.5881 38.3631 29.0573 35.2615 33.2363 35.2615C37.4146 35.2615 40.8814 38.3631 41.461 42.3857H25.0092Z" fill="black"/>
<path d="M33.0664 31.9682C36.6443 31.9682 39.5553 29.058 39.5553 25.4817C39.5553 21.9085 36.6443 19.0015 33.0664 19.0015C29.494 19.0015 26.5878 21.9085 26.5878 25.4817C26.5878 29.058 29.494 31.9682 33.0664 31.9682ZM33.0664 21.3836C35.331 21.3836 37.1732 23.2218 37.1732 25.4817C37.1732 27.7447 35.331 29.5861 33.0664 29.5861C30.8073 29.5861 28.9699 27.7447 28.9699 25.4817C28.9699 23.2218 30.8073 21.3836 33.0664 21.3836Z" fill="black"/>
<path d="M72.0373 65.1178L59.6145 52.7029C59.3914 52.4798 59.088 52.3543 58.772 52.3543C58.4568 52.3543 58.1527 52.4798 57.9287 52.7029L55.8904 54.7428L52.2235 51.0767C56.6972 46.372 59.4509 40.0188 59.4509 33.0297C59.4509 18.5741 47.6903 6.81348 33.2347 6.81348C18.7799 6.81268 7.01935 18.5733 7.01935 33.0289C7.01935 47.4852 18.7799 59.245 33.2355 59.245C39.8467 59.245 45.8902 56.7795 50.5068 52.7275L54.2078 56.4278L52.5006 58.1358C52.0361 58.6011 52.0361 59.3554 52.5014 59.8199L64.9235 72.2348C65.1466 72.4579 65.4499 72.5834 65.7659 72.5834C66.082 72.5834 66.3845 72.4579 66.6084 72.2348L72.0381 66.802C72.2612 66.5788 72.3867 66.2755 72.3867 65.9595C72.3859 65.6435 72.2604 65.3409 72.0373 65.1178ZM9.40148 33.0289C9.40148 19.8866 20.0933 9.19482 33.2355 9.19482C46.3778 9.19482 57.0696 19.8866 57.0696 33.0289C57.0696 46.1711 46.3778 56.8629 33.2355 56.8629C20.0933 56.8629 9.40148 46.1711 9.40148 33.0289ZM65.7644 69.7082L55.0281 58.9767L58.7736 55.2288L69.5107 65.9603L65.7644 69.7082Z" fill="black"/>
</svg>
