<svg width="100" height="100" viewBox="0 0 100 100" fill="none" xmlns="http://www.w3.org/2000/svg">
<path d="M71.182 11.6942C70.953 11.1842 70.461 10.8432 69.903 10.8102C69.333 10.7682 68.814 11.0562 68.527 11.5352L62.498 21.5722C62.071 22.2822 62.302 23.2042 63.012 23.6302C63.721 24.0572 64.644 23.8282 65.071 23.1172L68.086 18.0972C66.995 28.0912 61.828 38.0512 53.524 45.9282C43.686 55.2602 30.974 60.3992 17.73 60.3992C16.901 60.3992 16.23 61.0712 16.23 61.8992C16.23 62.7272 16.901 63.3992 17.73 63.3992C31.746 63.3992 45.191 57.9672 55.589 48.1052C64.325 39.8192 69.803 29.3172 71.042 18.7222L73.28 23.7242C73.529 24.2812 74.077 24.6122 74.65 24.6122C74.855 24.6122 75.063 24.5702 75.261 24.4812C76.018 24.1432 76.357 23.2552 76.018 22.4992L71.182 11.6942Z" fill="black"/>
<path d="M18.102 71.4321C17.273 71.4321 16.602 72.1041 16.602 72.9321V87.6941C16.602 88.5221 17.273 89.1941 18.102 89.1941C18.931 89.1941 19.602 88.5221 19.602 87.6941V72.9321C19.602 72.1041 18.931 71.4321 18.102 71.4321Z" fill="black"/>
<path d="M40.704 65.1753C39.875 65.1753 39.204 65.8473 39.204 66.6753V87.6943C39.204 88.5223 39.875 89.1943 40.704 89.1943C41.533 89.1943 42.204 88.5223 42.204 87.6943V66.6753C42.204 65.8473 41.533 65.1753 40.704 65.1753Z" fill="black"/>
<path d="M62.7939 50.2544C61.9659 50.2544 61.2939 50.9264 61.2939 51.7544V87.6934C61.2939 88.5214 61.9659 89.1934 62.7939 89.1934C63.6219 89.1934 64.2939 88.5214 64.2939 87.6934V51.7544C64.2939 50.9264 63.6219 50.2544 62.7939 50.2544Z" fill="black"/>
<path d="M82.271 14.3164C81.443 14.3164 80.771 14.9874 80.771 15.8164V87.6934C80.771 88.5214 81.443 89.1934 82.271 89.1934C83.099 89.1934 83.771 88.5214 83.771 87.6934V15.8164C83.771 14.9874 83.1 14.3164 82.271 14.3164Z" fill="black"/>
</svg>
