<svg width="80" height="80" viewBox="0 0 80 80" fill="none" xmlns="http://www.w3.org/2000/svg">
<g clip-path="url(#clip0_640_12)">
<path d="M68.1304 42.6133C67.7586 42.3739 67.2927 42.3401 66.8925 42.5249L50.923 49.876H40.6871C39.9719 49.876 39.3931 50.4581 39.3931 51.1771V65.0555C39.3931 65.4319 39.5294 65.6592 39.7425 65.9758L50.7678 83.132C51.0084 83.4903 51.4105 83.7054 51.8401 83.7054H58.1481C58.5829 83.7054 58.9893 83.4859 59.2282 83.1199C59.4681 82.7547 59.5086 82.2924 59.3361 81.8908L53.1212 67.3515L66.8916 73.6731C67.0633 73.752 67.2462 73.791 67.4291 73.791C67.6732 73.791 67.9165 73.7217 68.1287 73.5846C68.4988 73.3452 68.7231 72.9332 68.7231 72.4899V43.7089C68.7248 43.2656 68.5005 42.8527 68.1304 42.6133ZM41.9812 52.4791H50.6082C50.6082 52.6222 50.6082 52.7601 50.6082 52.9128V63.7553H41.9812V52.4791ZM52.5277 81.1032L42.6221 66.3575H49.8956C49.9085 66.3991 49.9171 66.4416 49.9352 66.4832L56.1846 81.1032H52.5277ZM66.1367 70.4654L53.1962 64.5246V51.6924L66.1367 45.7351V70.4654Z" fill="black"/>
<path d="M74.8447 53.1392C75.1044 53.1392 75.3667 53.0611 75.5944 52.898L81.2667 48.8377C81.849 48.4214 81.9844 47.6086 81.5703 47.0232C81.1571 46.4385 80.3479 46.3006 79.7656 46.7178L74.0933 50.7781C73.511 51.1945 73.3747 52.0072 73.7896 52.5927C74.0424 52.9483 74.4401 53.1392 74.8447 53.1392Z" fill="black"/>
<path d="M82.0966 55.9487H75.195C74.4799 55.9487 73.901 56.5308 73.901 57.2498C73.901 57.9689 74.4799 58.5509 75.195 58.5509H82.0966C82.811 58.5509 83.3907 57.9689 83.3907 57.2498C83.3907 56.5308 82.811 55.9487 82.0966 55.9487Z" fill="black"/>
<path d="M81.2668 65.7781L75.5945 61.7178C75.0139 61.3023 74.2047 61.4376 73.7898 62.0231C73.3757 62.6086 73.5111 63.4214 74.0934 63.8377L79.7657 67.898C79.9934 68.0611 80.2548 68.1391 80.5154 68.1391C80.92 68.1391 81.3185 67.9492 81.5704 67.5927C81.9845 67.0081 81.8491 66.1953 81.2668 65.7781Z" fill="black"/>
<path d="M29.309 39.9201C32.8141 39.9201 36.1804 40.6929 39.3137 42.2169C39.9573 42.5309 40.7311 42.2594 41.0417 41.6124C41.3531 40.9653 41.084 40.1872 40.4404 39.875C36.9525 38.1783 33.2075 37.3179 29.3081 37.3179C15.1271 37.3179 3.59021 48.9835 3.59021 63.3216C3.59021 64.0406 4.16908 64.6227 4.88426 64.6227H32.0593C32.7744 64.6227 33.3533 64.0406 33.3533 63.3216C33.3533 62.6025 32.7744 62.0205 32.0593 62.0205H6.21368C6.88313 49.719 16.9862 39.9201 29.309 39.9201Z" fill="black"/>
<path d="M29.8231 34.2038C38.1335 34.2038 44.8945 27.4078 44.8945 19.0539C44.8945 10.7008 38.1335 3.90479 29.8231 3.90479C21.5171 3.90479 14.7587 10.7 14.7587 19.0539C14.7587 27.4078 21.5162 34.2038 29.8231 34.2038ZM29.8231 6.50698C36.7066 6.50698 42.3064 12.1355 42.3064 19.0539C42.3064 25.9731 36.7066 31.6016 29.8231 31.6016C22.944 31.6016 17.3468 25.9722 17.3468 19.0539C17.3468 12.1355 22.944 6.50698 29.8231 6.50698Z" fill="black"/>
</g>
<defs>
<clipPath id="clip0_640_12">
<rect width="80" height="80" fill="white"/>
</clipPath>
</defs>
</svg>
