<svg width="80" height="80" viewBox="0 0 80 80" fill="none" xmlns="http://www.w3.org/2000/svg">
<path d="M63.6321 12L63.4881 11.856C63.363 11.5893 63.1435 11.3784 62.8721 11.264C51.9281 0.799951 35.9361 -0.976049 21.8241 6.73595C21.661 6.82491 21.5207 6.95054 21.4144 7.10294C21.3081 7.25534 21.2387 7.43034 21.2115 7.61416C21.1844 7.79798 21.2003 7.98559 21.258 8.16221C21.3157 8.33883 21.4137 8.49963 21.5441 8.63195L44.6881 32L17.7281 58.936C16.7897 59.8695 15.5198 60.3936 14.1961 60.3936C12.8724 60.3936 11.6025 59.8695 10.6641 58.936C10.2002 58.473 9.8321 57.9231 9.58096 57.3177C9.32982 56.7123 9.20055 56.0634 9.20055 55.408C9.20055 54.7525 9.32982 54.1036 9.58096 53.4982C9.8321 52.8928 10.2002 52.3429 10.6641 51.88C10.782 51.7701 10.8766 51.6376 10.9422 51.4904C11.0078 51.3432 11.043 51.1843 11.0459 51.0232C11.0487 50.8621 11.0191 50.702 10.9587 50.5526C10.8984 50.4032 10.8085 50.2674 10.6946 50.1535C10.5806 50.0395 10.4449 49.9497 10.2955 49.8894C10.1461 49.829 9.98601 49.7994 9.82488 49.8022C9.66376 49.805 9.50486 49.8403 9.35766 49.9059C9.21046 49.9715 9.07798 50.0661 8.96812 50.184C7.6256 51.5793 6.88416 53.4456 6.90319 55.3818C6.92222 57.318 7.70021 59.1695 9.0699 60.5381C10.4396 61.9067 12.2916 62.6833 14.2278 62.7009C16.164 62.7184 18.0298 61.9755 19.4241 60.632L46.4001 33.72L67.6801 55.248C67.7924 55.3604 67.9259 55.4494 68.0728 55.5098C68.2198 55.5702 68.3772 55.6009 68.5361 55.6H68.7121C68.8995 55.5722 69.0777 55.5004 69.232 55.3906C69.3863 55.2807 69.5125 55.1359 69.6001 54.968C77.1601 40.8 74.7041 23.152 63.6321 12ZM38.8321 22.744C38.9611 22.693 39.0802 22.6199 39.1841 22.528C50.6081 12.2 59.6641 13.048 61.6561 13.392L61.8881 13.616C62.1361 14.544 64.8801 25.816 54.3041 38.32L38.8321 22.744ZM58.6881 10.8C54.2641 10.92 46.5921 12.584 37.5921 20.712C37.4622 20.8319 37.3611 20.9795 37.2961 21.144L24.4001 8.10395C36.1441 2.30395 49.0641 3.38395 58.6881 10.8ZM68.2081 52.4L56.0001 40C64.0001 30.64 65.0401 21.896 64.8001 16.968C68.5235 22.0053 70.8081 27.9598 71.4098 34.195C72.0115 40.4301 70.9076 46.7115 68.2161 52.368L68.2081 52.4Z" fill="black"/>
<path d="M50.8 57.6641C50.8 57.9824 50.9264 58.2876 51.1514 58.5126C51.3765 58.7377 51.6817 58.8641 52 58.8641C52.3182 58.8641 52.6234 58.7377 52.8485 58.5126C53.0735 58.2876 53.2 57.9824 53.2 57.6641C53.2 54.2881 50.24 51.4961 46.4 51.0081V48.8001C46.4 48.4818 46.2735 48.1766 46.0485 47.9516C45.8234 47.7265 45.5182 47.6001 45.2 47.6001C44.8817 47.6001 44.5765 47.7265 44.3514 47.9516C44.1264 48.1766 44 48.4818 44 48.8001V51.0081C40.16 51.4961 37.2 54.2961 37.2 57.6641C37.2 61.0321 40.16 63.8241 44 64.3121V72.9761C41.488 72.5521 39.6 70.8081 39.6 68.7361C39.6 68.4178 39.4735 68.1126 39.2485 67.8876C39.0234 67.6625 38.7182 67.5361 38.4 67.5361C38.0817 67.5361 37.7765 67.6625 37.5514 67.8876C37.3264 68.1126 37.2 68.4178 37.2 68.7361C37.2 72.1121 40.16 74.9041 44 75.3921V77.6001C44 77.9184 44.1264 78.2236 44.3514 78.4486C44.5765 78.6737 44.8817 78.8001 45.2 78.8001C45.5182 78.8001 45.8234 78.6737 46.0485 78.4486C46.2735 78.2236 46.4 77.9184 46.4 77.6001V75.3921C50.24 74.9041 53.2 72.1041 53.2 68.7361C53.2 65.3681 50.24 62.5761 46.4 62.0881V53.4241C48.912 53.8561 50.8 55.5921 50.8 57.6641ZM39.6 57.6641C39.6 55.5921 41.488 53.8561 44 53.4241V61.8961C41.488 61.4721 39.6 59.7361 39.6 57.6641ZM50.8 68.7361C50.8 70.8081 48.912 72.5441 46.4 72.9761V64.5041C48.912 64.9281 50.8 66.6641 50.8 68.7361Z" fill="black"/>
</svg>
