<svg width="50" height="50" viewBox="0 0 50 50" fill="none" xmlns="http://www.w3.org/2000/svg">
<g clip-path="url(#clip0_640_12)">
<path d="M42.5815 26.633C42.3491 26.4834 42.058 26.4623 41.8078 26.5777L31.8269 31.1722H25.4294C24.9825 31.1722 24.6207 31.536 24.6207 31.9854V40.6594C24.6207 40.8947 24.7059 41.0367 24.839 41.2346L31.7298 51.9572C31.8803 52.1811 32.1315 52.3156 32.4001 52.3156H36.3426C36.6143 52.3156 36.8683 52.1784 37.0176 51.9496C37.1675 51.7214 37.1929 51.4324 37.085 51.1814L33.2007 42.0944L41.8072 46.0454C41.9145 46.0947 42.0289 46.1191 42.1432 46.1191C42.2957 46.1191 42.4478 46.0757 42.5804 45.9901C42.8117 45.8404 42.9519 45.5829 42.9519 45.3059V27.3177C42.953 27.0407 42.8128 26.7827 42.5815 26.633ZM26.2382 32.7991H31.6301C31.6301 32.8886 31.6301 32.9748 31.6301 33.0702V39.8467H26.2382V32.7991ZM32.8298 50.6892L26.6388 41.4731H31.1847C31.1928 41.4991 31.1982 41.5257 31.2095 41.5517L35.1154 50.6892H32.8298ZM41.3355 44.0406L33.2477 40.3276V32.3074L41.3355 28.5841V44.0406Z" fill="black"/>
<path d="M46.778 33.212C46.9403 33.212 47.1042 33.1632 47.2465 33.0613L50.7917 30.5236C51.1557 30.2634 51.2403 29.7554 50.9815 29.3895C50.7232 29.0241 50.2175 28.9379 49.8535 29.1986L46.3084 31.7363C45.9444 31.9965 45.8592 32.5045 46.1186 32.8704C46.2766 33.0927 46.5251 33.212 46.778 33.212Z" fill="black"/>
<path d="M51.3104 34.9678H46.9969C46.5499 34.9678 46.1881 35.3315 46.1881 35.781C46.1881 36.2304 46.5499 36.5941 46.9969 36.5941H51.3104C51.7568 36.5941 52.1192 36.2304 52.1192 35.781C52.1192 35.3315 51.7568 34.9678 51.3104 34.9678Z" fill="black"/>
<path d="M50.7917 41.111L47.2466 38.5733C46.8837 38.3136 46.3779 38.3982 46.1186 38.7642C45.8598 39.1301 45.9444 39.6381 46.3084 39.8983L49.8535 42.4359C49.9959 42.5379 50.1592 42.5867 50.3221 42.5867C50.575 42.5867 50.8241 42.4679 50.9815 42.2451C51.2403 41.8797 51.1557 41.3718 50.7917 41.111Z" fill="black"/>
<path d="M18.3181 24.9501C20.5088 24.9501 22.6128 25.4331 24.5711 26.3856C24.9733 26.5819 25.457 26.4122 25.6511 26.0078C25.8457 25.6034 25.6775 25.1171 25.2753 24.9219C23.0953 23.8615 20.7547 23.3237 18.3176 23.3237C9.45444 23.3237 2.2439 30.6147 2.2439 39.576C2.2439 40.0255 2.60569 40.3892 3.05268 40.3892H20.0371C20.484 40.3892 20.8458 40.0255 20.8458 39.576C20.8458 39.1266 20.484 38.7628 20.0371 38.7628H3.88356C4.30197 31.0745 10.6164 24.9501 18.3181 24.9501Z" fill="black"/>
<path d="M18.6395 21.3773C23.8334 21.3773 28.0591 17.1298 28.0591 11.9086C28.0591 6.68796 23.8334 2.44043 18.6395 2.44043C13.4482 2.44043 9.22418 6.68742 9.22418 11.9086C9.22418 17.1298 13.4476 21.3773 18.6395 21.3773ZM18.6395 4.0668C22.9416 4.0668 26.4415 7.58463 26.4415 11.9086C26.4415 16.2331 22.9416 19.751 18.6395 19.751C14.34 19.751 10.8417 16.2326 10.8417 11.9086C10.8417 7.58463 14.34 4.0668 18.6395 4.0668Z" fill="black"/>
</g>
<defs>
<clipPath id="clip0_640_12">
<rect width="50" height="50" fill="white"/>
</clipPath>
</defs>
</svg>
