<svg width="100" height="100" viewBox="0 0 100 100" fill="none" xmlns="http://www.w3.org/2000/svg">
<path d="M37.23 32.3701L34.78 46.6701C34.7291 46.9511 34.7594 47.2408 34.8674 47.5051C34.9754 47.7694 35.1567 47.9975 35.3898 48.1623C35.623 48.3272 35.8984 48.4221 36.1836 48.4359C36.4688 48.4497 36.752 48.3817 37 48.2401L49.8 41.4901L62.64 48.2401C62.8877 48.3712 63.1673 48.4303 63.4469 48.4107C63.7265 48.391 63.995 48.2934 64.222 48.1289C64.4489 47.9644 64.6253 47.7396 64.731 47.48C64.8367 47.2204 64.8675 46.9363 64.82 46.6601L62.37 32.3601L72.75 22.2401C72.9508 22.0449 73.093 21.7973 73.1604 21.5255C73.2278 21.2536 73.2177 20.9683 73.1313 20.7019C73.045 20.4355 72.8857 20.1986 72.6716 20.018C72.4575 19.8374 72.1972 19.7203 71.92 19.6801L57.56 17.6001L51.14 4.6001C51.0161 4.34917 50.8245 4.1379 50.5868 3.99017C50.3491 3.84245 50.0748 3.76416 49.795 3.76416C49.5151 3.76416 49.2409 3.84245 49.0032 3.99017C48.7655 4.1379 48.5739 4.34917 48.45 4.6001L42 17.6001L27.68 19.6801C27.4028 19.7203 27.1425 19.8374 26.9284 20.018C26.7143 20.1986 26.555 20.4355 26.4687 20.7019C26.3823 20.9683 26.3722 21.2536 26.4396 21.5255C26.507 21.7973 26.6492 22.0449 26.85 22.2401L37.23 32.3701ZM43.23 20.4501C43.4707 20.4153 43.6994 20.3224 43.8962 20.1796C44.0931 20.0367 44.2522 19.8482 44.36 19.6301L49.78 8.6301L55.2 19.6301C55.3078 19.8482 55.4669 20.0367 55.6638 20.1796C55.8606 20.3224 56.0893 20.4153 56.33 20.4501L68.46 22.2101L59.7 30.7701C59.5257 30.9402 59.3955 31.1502 59.3206 31.382C59.2457 31.6137 59.2283 31.8602 59.27 32.1001L61.34 44.1801L50.5 38.4701C50.2842 38.3563 50.044 38.2967 49.8 38.2967C49.556 38.2967 49.3158 38.3563 49.1 38.4701L38.25 44.1701L40.32 32.1001C40.3617 31.8602 40.3443 31.6137 40.2694 31.382C40.1945 31.1502 40.0643 30.9402 39.89 30.7701L31.11 22.2201L43.23 20.4501Z" fill="black"/>
<path d="M85 44.9998C85.0129 44.8869 85.0129 44.7728 85 44.6598V44.5898C84.9742 44.5037 84.9408 44.42 84.9 44.3398L84.85 44.2498C84.8057 44.1791 84.7556 44.1122 84.7 44.0498L84.64 43.9798C84.5589 43.8962 84.4683 43.8224 84.37 43.7598L71.6 35.8498C71.2619 35.6377 70.8533 35.5685 70.4641 35.6576C70.075 35.7467 69.7372 35.9867 69.525 36.3248C69.3128 36.663 69.2437 37.0716 69.3328 37.4607C69.4218 37.8498 69.6619 38.1877 70 38.3998L80.41 44.8598L40.74 64.6998L19.18 45.3898L29.47 40.4998C29.8294 40.3288 30.1061 40.022 30.2392 39.6469C30.3724 39.2718 30.3511 38.8592 30.18 38.4998C30.0089 38.1405 29.7021 37.8638 29.3271 37.7306C28.952 37.5975 28.5394 37.6188 28.18 37.7898L15.86 43.6498C15.7523 43.7041 15.6515 43.7713 15.56 43.8498L15.49 43.9098C15.4116 43.982 15.3412 44.0625 15.28 44.1498V44.2098C15.2126 44.316 15.1589 44.4302 15.12 44.5498V44.6298C15.1085 44.7362 15.1085 44.8435 15.12 44.9498C15.12 44.9498 15.12 44.9498 15.12 44.9998V75.1998C15.1192 75.4186 15.1662 75.6348 15.2577 75.8335C15.3493 76.0322 15.4832 76.2084 15.65 76.3498L39.65 97.6498C39.7706 97.7468 39.9055 97.8244 40.05 97.8798H40.11C40.2613 97.9317 40.42 97.9587 40.58 97.9598C40.6864 97.9712 40.7936 97.9712 40.9 97.9598H40.97L41.2 97.8798L84.2 76.5798C84.4496 76.4483 84.6571 76.2491 84.7987 76.005C84.9402 75.7609 85.0099 75.4818 85 75.1998V44.9998ZM18 48.3598L39 67.1698V93.2698L18 74.4998V48.3598ZM82 74.2498L42 94.1298V67.4298L82 47.4298V74.2498Z" fill="black"/>
</svg>
